<svg xmlns="http://www.w3.org/2000/svg" width="32" height="32" viewBox="0 0 32 32"><path fill="none" d="M16.2 32.2H.2V0h32v32z"/><path fill="#dad3f0" d="M30 28.2a6 6 0 0 1-3.6 3c-3.4 1-7-1.7-7-5.3v-1.6l-1.6-1.6-1.6-1.6-1.6 1.6c-1.4 1.4-1.6 1.7-1.6 3q0 2.7-1.9 4.3c-4.6 3.9-11.2-1-8.8-6.6A6 6 0 0 1 7.8 20c.9 0 1.3-.1 2.6-1.5L12 17l-3.5-3.5a31 31 0 0 1-4-4.8C4 7.4 3.8 1 4.3 1c.1 0 2.8 2.6 6 5.9l5.9 5.8L22 7c3.2-3.4 6-6 6-6 .5 0 .3 6.4-.2 7.6-.3.7-2 2.8-4 4.8l-3.5 3.5 1.6 1.6c1.4 1.4 1.8 1.6 2.7 1.5 1.2-.1 3.2.6 4.3 1.6 1.6 1.5 2 4.4 1.2 6.6m-2.4-3.9c-.8-1.7-3.3-2.1-4.7-.8-2.5 2.3.2 6.4 3.3 5 1.6-.8 2.2-2.5 1.4-4.2m-17.5 0c-.5-1-2.3-1.9-3.3-1.6-2.4.6-3.2 3.6-1.4 5.2 2.4 2.4 6-.5 4.7-3.6"/><path fill="#f1d4d4" d="M30 28.2a6 6 0 0 1-3.6 3c-3.4 1-7-1.7-7-5.3v-1.6l-1.6-1.6-1.6-1.6-1.6 1.6c-1.4 1.4-1.6 1.7-1.6 3q0 2.7-1.9 4.3c-4.6 3.9-11.2-1-8.8-6.6A6 6 0 0 1 7.8 20c.9 0 1.3-.1 2.6-1.5L12 17l-3.5-3.5a31 31 0 0 1-4-4.8C4 7.4 3.8 1 4.3 1c.1 0 2.8 2.6 6 5.9l5.9 5.8L22 7c3.2-3.4 6-6 6-6 .5 0 .3 6.4-.2 7.6-.3.7-2 2.8-4 4.8l-3.5 3.5 1.6 1.6c1.4 1.4 1.8 1.6 2.7 1.5 1.2-.1 3.2.6 4.3 1.6 1.6 1.5 2 4.4 1.2 6.6m-2.4-3.9c-.8-1.7-3.3-2.1-4.7-.8-2.5 2.3.2 6.4 3.3 5 1.6-.8 2.2-2.5 1.4-4.2M22.3 7.5 17 12.9l1.6 1.6L20 16l3.4-3.3c1.8-1.8 3.5-3.7 3.7-4.3s.4-2 .4-3.6V2zm-9.5 2.8L4.7 2.1v2.7c0 1.4.1 3 .3 3.5s3.2 3.7 6.6 7.2L18 22l1.5-1.5 1.6-1.7zm4 7.7c-.8.5-1.8 0-1.8-1s1-1.6 2-1.1q.5.4.6 1 0 1-.7 1.2M14 19l-1.5-1.5-.6.6-.6.7 1.5 1.6 1.6 1.6.6-.6c.7-.7.7-.7-1-2.4m-4 5.4c-.4-1-2.2-1.9-3.2-1.6-2.4.6-3.2 3.6-1.4 5.2 2.4 2.4 6-.5 4.7-3.6"/><path fill="#dbd5e1" d="M29.8 28.4a5.5 5.5 0 0 1-10.4-2.8c0-1.2-.2-1.5-1.6-3l-1.6-1.5-1.6 1.6-1.6 1.6v1.4c0 3.7-3.5 6.4-7 5.5-5.5-1.5-5.5-9.4 0-11a5 5 0 0 1 2-.1q.5.2 2.3-1.5l1.7-1.7-3.5-3.5a31 31 0 0 1-4-4.8C4 7.4 3.8 1 4.3 1c.1 0 2.8 2.6 6 5.9l5.9 5.8L22 7c3.2-3.4 6-6 6-6 .5 0 .3 6.4-.2 7.6-.3.7-2 2.8-4 4.8l-3.5 3.5 1.7 1.7q1.8 1.7 2.3 1.5c1-.3 3.1.4 4.1 1.2 2 1.6 2.7 4.8 1.4 7.1m-2.6-4.8c-2-2-5.3-.8-5.3 2.1q0 2.1 2 3c2 .8 4-.7 4-3q.1-1.4-.7-2M22.3 7.5 17 12.9l1.6 1.6L20 16l3.4-3.3c1.8-1.8 3.5-3.7 3.7-4.3s.4-2 .4-3.6V2zm-9.5 2.8L4.7 2.1v2.7c0 1.4.1 3 .3 3.5s3.2 3.7 6.6 7.2L18 22l1.5-1.5 1.6-1.7zm4 7.7c-.8.5-1.8 0-1.8-1s1-1.6 2-1.1q.5.4.6 1 0 1-.7 1.2M14 19l-1.5-1.5-.6.6-.6.7 1.5 1.6 1.6 1.6.6-.6c.7-.7.7-.7-1-2.4m-4.3 4.7c-2.1-2-5.3-.8-5.3 2.1s3.2 4.2 5.3 2.1c1-1 1-3 0-4.2"/><path fill="#c7b8d1" d="M29.8 28.4a5.5 5.5 0 0 1-10.4-2.7c0-1.2-.3-1.7-1.6-3.2l-1.6-1.8-1.6 1.8c-1.4 1.6-1.6 2-1.6 3.2 0 3.7-3.5 6.4-7 5.5-5.5-1.5-5.5-9.4 0-11a5 5 0 0 1 2-.1c.6.1 4-2.5 4-3.2 0-.2-1.6-2-3.7-4-4.1-4.3-4.2-4.4-4.2-9.2V.8L10 7l6 6.1 6.1-6L28.3.7v3c0 4.6-.1 4.9-4.3 9L20.3 17c0 .7 3.4 3.3 4 3.2 1-.3 3.1.4 4.1 1.2 2 1.6 2.7 4.8 1.4 7.1m-2.6-4.8c-2-2-5.3-.8-5.3 2.1q0 2.1 2 3c2 .8 4-.7 4-3q.1-1.4-.7-2M22.3 7.5 17 12.9l1.6 1.6L20 16l3.4-3.3c1.8-1.8 3.5-3.7 3.7-4.3s.4-2 .4-3.6V2zm-9.5 2.8L4.7 2.1v2.7c0 1.4.1 3 .3 3.5s3.2 3.7 6.6 7.2L18 22l1.5-1.5 1.6-1.7zm4.1 7.5q-.4.5-.7.5c-.5 0-1.3-1-1.3-1.4s.8-1.5 1.3-1.5 1.3 1 1.3 1.5q0 .4-.6 1m-2.9 1-1.5-1.4-.6.6-.6.7 1.5 1.6 1.6 1.6.6-.6c.7-.7.7-.7-1-2.4m-4.3 4.8c-2.1-2-5.3-.8-5.3 2.1s3.2 4.2 5.3 2.1c1-1 1-3 0-4.2"/><path fill="#e6b0b0" d="M29.8 28.4a5.5 5.5 0 0 1-10.4-2.7c0-1.2-.3-1.7-1.6-3.2l-1.6-1.8-1.6 1.8c-1.4 1.6-1.6 2-1.6 3.2 0 3.7-3.5 6.4-7 5.5-5.5-1.5-5.5-9.4 0-11a5 5 0 0 1 2-.1q.6 0 2.5-1.5l1.9-1.7-3.7-3.7c-2-2-3.8-4-4-4.4s-.3-2.3-.3-4.2V1.2L10.3 7l5.9 6L22 7l5.9-6v3.5c0 2-.2 3.8-.4 4.2s-2 2.4-4 4.4L20 17l1.9 1.7q1.8 1.7 2.5 1.5c.9-.3 3 .4 4 1.2 2 1.6 2.7 4.8 1.4 7.1m-2.6-4.8c-2-2-5.3-.8-5.3 2.1q0 2.1 2 3c2 .8 4-.7 4-3q.1-1.4-.7-2M22.3 7.5 17 12.9l1.6 1.6L20 16l3.2-3.1c4.3-4.3 4.4-4.5 4.4-8V2.1zm-9.5 2.8L4.7 2.1V5q0 2.9.4 3.7c.3.5 3.3 3.7 6.8 7.2L18 22l1.4-1.6 1.5-1.7zm4.2 7.4c-1 .8-2.6-.4-1.8-1.4q.9-1 1.9-.1.8.8-.1 1.5m-5 .2-.7.7 1 1.3c1.6 2 1.9 2.2 2.8 1.3l.8-.7-1.6-1.7-1.6-1.6zm-2.3 5.7c-2.1-2-5.3-.8-5.3 2.1s3.2 4.2 5.3 2.1c1-1 1-3 0-4.2"/><path fill="#b1a3c7" d="M29.9 28.2q-1.4 2.9-4.5 3-5.4.1-6-5.5l-.1-1.8-1.6-1.6-1.5-1.5-1.6 1.5-1.5 1.6-.2 1.8c-.2 3.6-2.5 5.7-6 5.4q-3.1 0-4.5-3a5.4 5.4 0 0 1 5-7.8H9l1.7-1.7 1.6-1.7-3.5-3.5c-2-2-3.7-4-4-4.4q-.4-.9-.4-4.4V1.2L10.3 7l5.9 6L22 7l5.9-6v3.5q0 3.6-.5 4.4c-.2.4-2 2.4-4 4.4L20 16.9l1.7 1.7 1.6 1.7H25c4.2 0 6.9 4.2 5 8m-2.6-4.6q-.7-.8-2.1-1c-2.9-.4-4.5 3.3-2.4 5.4 2.8 2.8 7-1.4 4.5-4.4m-5-16.1L17 12.9l1.6 1.6L20 16l3.2-3.1c4.3-4.3 4.4-4.5 4.4-8V2.1zM4.8 4.9c-.1 1.5 0 3 .2 3.5s3.2 3.7 6.7 7.2l6.4 6.4 1.6-1.6 1.6-1.6-8.2-8.2-8.2-8.3zM17 17.7c-1 .8-2.6-.4-1.8-1.4q.9-1 1.9-.1.8.8-.1 1.5m-5.1.3-.8.8 1.6 1.6 1.5 1.6.9-.8.8-.7-1.6-1.7-1.6-1.6zm-2.2 5.6q-.7-.8-2-1c-3-.4-4.5 3.3-2.4 5.4 2.8 2.8 7-1.4 4.4-4.4"/><path fill="#f58d8d" d="M29.9 28.2q-1.4 2.9-4.5 3-5.4.1-6-5.5l-.1-1.8-1.6-1.6-1.5-1.5-1.6 1.5-1.5 1.6-.2 1.8c-.2 3.6-2.5 5.7-6 5.4q-3.1 0-4.5-3a5.4 5.4 0 0 1 5-7.8H9l1.7-1.7 1.6-1.7-3.5-3.5c-2-2-3.7-4-4-4.4q-.4-.9-.4-4.4V1.2L10.3 7l5.9 6L22 7l5.9-6v3.5q0 3.6-.5 4.4c-.2.4-2 2.4-4 4.4L20 16.9l1.7 1.7 1.6 1.7H25c4.2 0 6.9 4.2 5 8m-2.6-4.6q-.7-.8-2.1-1c-2.9-.4-4.5 3.3-2.4 5.4 2.8 2.8 7-1.4 4.5-4.4m-5-16.3-5.5 5.4 1.8 1.8 1.7 1.7 2.8-2.7 3.6-4 1-1.2V1.8zM13 10 4.7 1.8V5c0 2.5.1 3.4.5 4 .3.5 3.3 3.6 6.6 7l6.1 6.2 1.7-1.7q1.6-1.5 1.7-1.8c0-.3-3.8-4-8.3-8.6m4 7.4c-.6 1.2-2.4.1-1.7-1.2q.2-.5.9-.5c.8 0 1.3 1 .9 1.7m-2.6 1.4c-1.7-1.7-2-1.8-2.9-.9l-.5.7 1.5 1.6c1.7 1.7 2 1.8 2.8 1 .8-.7.8-.6-1-2.4m-4.7 4.7q-.7-.8-2-1c-3-.4-4.5 3.3-2.4 5.4 2.8 2.8 7-1.4 4.4-4.4"/><path fill="#db8b8b" d="M29.9 28.2q-1.4 2.9-4.5 3-5.4.1-6-5.5l-.1-1.8-1.6-1.6-1.5-1.5-1.6 1.5-1.5 1.6-.2 1.8c-.2 3.6-2.5 5.7-6 5.4q-3.1 0-4.5-3a5.4 5.4 0 0 1 5-7.8H9l1.7-1.7 1.6-1.7-3.5-3.5c-2-2-3.7-4-4-4.4q-.4-.9-.4-4.4V1.2L10.3 7l5.9 6L22 7l5.9-6v3.5q0 3.6-.5 4.4c-.2.4-2 2.4-4 4.4L20 16.9l1.7 1.7 1.6 1.7H25c4.2 0 6.9 4.2 5 8m-.8-5.5c-1-1.2-3.1-2.2-4.6-2-1 .1-1.3 0-2-.7l-1-.8-1.5 1.6-1.6 1.5.8.9c.6.6.8 1.1.8 2.4 0 3.8 3.5 6.2 6.8 4.8a6 6 0 0 0 2.8-2.6c.5-1 .2-4.1-.5-5m-.8 4.5c-1.5 3.6-6.9 2.4-6.9-1.5 0-3.3 3.8-4.8 6.2-2.4.8.8 1.2 2.8.7 3.9m-1-3.6q-.7-.8-2.1-1c-2.9-.4-4.5 3.3-2.4 5.4 2.8 2.8 7-1.4 4.5-4.4m-5-16.3-5.5 5.4 1.8 1.8 1.7 1.7 2.8-2.7 3.6-4 1-1.2V1.8zM13 10 4.7 1.8V5c0 2.5.1 3.4.5 4 .3.5 3.3 3.6 6.6 7l6.1 6.2 1.7-1.7q1.6-1.5 1.7-1.8c0-.3-3.8-4-8.3-8.6m4 7.4c-.6 1.2-2.4.1-1.7-1.2q.2-.5.9-.5c.8 0 1.3 1 .9 1.7m-2.6 1.4c-1.7-1.7-2-1.8-2.9-.9l-.5.7 1.5 1.6c1.7 1.7 2 1.8 2.8 1 .8-.7.8-.6-1-2.4M9.9 20q-.8 1-2 .7c-1.5-.2-3.7.8-4.6 2-1 1.3-1 4.2-.3 5.6a6 6 0 0 0 4.4 2.6c1.2 0 3.4-1.1 4.1-2.2q.7-1 .8-2.9c0-1.6.3-2.1.9-2.7l.8-.7-1.6-1.6-1.6-1.6zm.9 7.2a4 4 0 0 1-4.4 2c-3.4-1-3.4-6 0-7 2.8-.7 5.5 2.3 4.4 5m-1-3.6q-.8-.8-2.1-1c-3-.4-4.5 3.3-2.4 5.4 2.8 2.8 7-1.4 4.4-4.4"/><path fill="#9d8ab2" d="M30.2 27.5c-1.9 5.8-10.5 4.4-10.7-1.7v-1.7l-1.7-1.7-1.6-1.6-1.7 1.6-1.6 1.7v1.7c-.3 7.2-11 7.1-11 0 0-3.3 2.4-5.5 5.6-5.5H9l1.7-1.7 1.6-1.7-3.5-3.5c-2-2-3.7-4-4-4.4q-.4-.8-.4-4.4V1.2L10.3 7l5.9 6L22 7l5.9-6v3.5q0 3.5-.5 4.4c-.2.4-2 2.4-4 4.4L20 16.9l1.7 1.7 1.6 1.7H25c3.7 0 6.4 3.6 5.3 7.2M29 22.7c-1-1.2-3.1-2.2-4.6-2-1 .1-1.3 0-2-.7l-1-.8-1.5 1.6-1.6 1.5.8.9c.6.6.8 1.1.8 2.4 0 3.8 3.5 6.2 6.8 4.8a6 6 0 0 0 2.8-2.6c.5-1 .2-4.1-.5-5m-.8 4.5c-1.5 3.6-6.9 2.4-6.9-1.5 0-3.3 3.8-4.8 6.2-2.4.8.8 1.2 2.8.7 3.9M27 23.4q-2-1.8-4.2 0c-3 2.7 1 7.3 4 4.9 1.8-1.4 1.8-3.4.2-4.9M22.2 7.3l-5.4 5.4 1.8 1.8 1.7 1.7 2.8-2.7 3.6-4 1-1.2V1.8zM13 10 4.7 1.8V5c0 2.5.1 3.4.5 4 .3.5 3.3 3.6 6.6 7l6.1 6.2 1.7-1.7q1.6-1.5 1.7-1.8c0-.3-3.8-4-8.3-8.6m4 7.4c-.6 1.2-2.4.1-1.7-1.2q.2-.5.9-.5c.8 0 1.3 1 .9 1.7m-2.6 1.4c-1.7-1.7-2-1.8-2.9-.9l-.5.7 1.5 1.6c1.7 1.7 2 1.8 2.8 1 .8-.7.8-.6-1-2.4M9.9 20q-.8 1-2 .7c-1.5-.2-3.7.8-4.6 2-1 1.3-1 4.2-.3 5.6a6 6 0 0 0 4.4 2.6c1.2 0 3.4-1.1 4.1-2.2q.7-1 .8-2.9c0-1.6.3-2.1.9-2.7l.8-.7-1.6-1.6-1.6-1.6zm.9 7.2a4 4 0 0 1-4.4 2c-3.4-1-3.4-6 0-7 2.8-.7 5.5 2.3 4.4 5m-1.3-3.8q-2.1-1.8-4.2 0c-3 2.7.9 7.3 4 4.9 1.7-1.4 1.8-3.4.2-4.9"/><path fill="#e67474" d="M30.2 27.5c-1.9 5.8-10.5 4.4-10.7-1.7v-1.7l-1.7-1.7-1.6-1.6-1.7 1.6-1.6 1.7v1.7c-.3 7.2-11 7.1-11 0 0-3.3 2.4-5.5 5.5-5.5H9l1.7-1.7 1.7-1.7-3.6-3.7 2.8 2.7 6.3 6.3 1.8-1.8 1.7-1.8-8.5-8.5-2.6-3 5.9 6L22 7h.2l-5.5 6 1.5 1.6a8 8 0 0 0 2 1.6c.1 0 1.8-1.5 3.6-3.3l3.4-3.3-3.6 3.7L20 17l1.7 1.7 1.7 1.7h1.5c3.7 0 6.4 3.7 5.3 7.2M29 22.7c-1-1.2-3.1-2.2-4.6-2-1 .1-1.3 0-2-.7l-1-.8-1.5 1.6-1.6 1.5.8.9c.6.6.8 1.1.8 2.4 0 3.8 3.5 6.2 6.8 4.8a6 6 0 0 0 2.8-2.6c.5-1 .2-4.1-.5-5m-.8 4.5c-1.5 3.6-6.9 2.4-6.9-1.5 0-3.3 3.8-4.8 6.2-2.4.8.8 1.2 2.8.7 3.9M27 23.4q-2-1.8-4.2 0c-3 2.7 1 7.3 4 4.9 1.8-1.4 1.8-3.4.2-4.9m-12.8-4.7L12.5 17l-.8.9-.8.8 1.8 1.7 1.7 1.8.7-.7.8-.9zM9.9 20q-.8 1-2 .7c-1.5-.2-3.7.8-4.6 2-1 1.3-1 4.2-.3 5.6a6 6 0 0 0 4.4 2.6c1.2 0 3.4-1.1 4.1-2.2q.7-1 .8-2.9c0-1.6.3-2.1.9-2.7l.8-.7-1.6-1.6-1.6-1.6zm.9 7.2a4 4 0 0 1-4.4 2c-3.4-1-3.4-6 0-7 2.8-.7 5.5 2.3 4.4 5m-1.3-3.8q-2.1-1.8-4.2 0c-3 2.7.9 7.3 4 4.9 1.7-1.4 1.8-3.4.2-4.9M27.8 7.8v-.6q.1-.2.2.4 0 .6-.2.2m-11.3 10q-1.3.4-1.3-.9.1-1.2 1.5-1c.7.4.6 1.7-.2 2m-12-10v-.6q.2-.2.2.4t-.2.2"/><path fill="#d86767" d="M30.2 27.5c-.3 1-1.7 2.6-3 3.2-1 .6-3.5.6-4.6 0-2.1-1-3.7-4-3.1-5.9q.3-.5-1.6-2.3l-1.7-1.7-1.8 1.7q-1.8 1.9-1.5 2.3c.5 1.8-1 4.8-3.1 6-1.1.5-3.6.5-4.6 0C0 28.1 1.5 20.3 7.5 20.3H9l1.7-1.7 1.7-1.7-3.6-3.7 2.8 2.7 6.3 6.3 1.8-1.8 1.7-1.8-8.5-8.5-2.6-3 5.9 6L22 7h.2l-5.5 6 1.5 1.6a8 8 0 0 0 2 1.6c.1 0 1.8-1.5 3.6-3.3l3.4-3.3-3.6 3.7L20 17l1.7 1.7 1.7 1.7h1.5c3.8 0 6.4 3.5 5.3 7.2m-.8-4.4q-1.2-2.2-4.5-2.5c-1.6 0-2.1-.2-2.7-.8l-.7-.8-1.5 1.7-1.5 1.7.7.7q.7.8.7 2.4c0 2.8 1.6 4.9 4 5.3 4.5.7 7.6-3.7 5.5-7.7M28 27.6c-2.2 3.6-7.7 1-6.4-3a3 3 0 0 1 3.3-2.4q2.4 0 3.3 2.1c.6 1.4.5 2-.2 3.3m-1-4.2q-2-1.8-4.2 0c-3 2.7 1 7.3 4 4.9 1.8-1.4 1.8-3.4.2-4.9m-12.8-4.7L12.5 17l-.8.9-.8.8 1.8 1.7 1.7 1.8.7-.7.8-.9zm-4 1q-.9.9-2.8 1-4.9.4-5 5 .2 4.8 5 5c3.2 0 5-2 5-5.2 0-1.3.2-1.8.8-2.4l.7-.7-1.5-1.7-1.5-1.6zm.2 7.9c-2.2 3.6-7.7 1-6.3-3a3 3 0 0 1 3.3-2.4q2.3 0 3.2 2.1c.6 1.4.6 2-.2 3.3m-1-4.2q-2-1.8-4.1 0c-3 2.7.9 7.3 4 4.9 1.7-1.4 1.8-3.4.2-4.9M27.9 7.8v-.6q.1-.2.2.4 0 .6-.2.2m-11.3 10q-1.3.4-1.3-.9.1-1.2 1.5-1c.7.4.6 1.7-.2 2m-12-10v-.6q.2-.2.2.4t-.2.2"/><path fill="#8c75a1" d="M30.3 26.1v-.8q.2-.2.2.4 0 .8-.2.4M28.4 30q-1 .9-1.5 1-.2 0 .3-.4l1.5-1.2.9-.6zm.2-7.9-1.4-1q-.6-.4-.3-.4.6.1 1.5 1t.2.4m-.8 5.8q-.9 1.2 0-.7.5-.8.5-.4 0 .6-.5 1.1m0-3.5q-.9-1.7 0-.6.5.6.5 1t-.5-.4m0-16.5v-.6q.1-.2.2.4 0 .6-.2.2m-5.5-.5L16.7 13l1.5 1.6a8 8 0 0 0 2 1.6c.1 0 1.8-1.5 3.6-3.3l3.4-3.3-3.6 3.7L20 17l1.7 1.7c1.5 1.5 1.8 1.6 3.2 1.8h1.6l-1.5.1c-1.4 0-1.8 0-2.5-.8l-1-.8-1.5 1.5q-1.5 1.5-1.6 2 0 .5.9 1.2.6.8-1.1-1l-2-1.8-2 1.9-1.1 1 .8-1.4q-.1-.4-1.5-1.9L10.8 19l-1 .8c-.8.8-1 1-2.4.8l-1.6-.1h1.6l1.6-.1 1.7-1.7 1.7-1.7-3.6-3.7 2.8 2.7 6.3 6.3 1.8-1.8 1.7-1.8-8.5-8.5-2.6-3 5.9 6L22 7c3.2-3.3 5.9-5.8 5.8-5.6 0 .2-2.5 2.8-5.6 5.8m-8.1 11.4L12.5 17l-.8.9-.8.8 1.8 1.7 1.7 1.8.7-.7.8-.9zM26.7 23l-1.8-.5-1.2-.2h1.1a3 3 0 0 1 1.8.4q.5.4.1.3m-1.8 8q-1.3 0-.7-.1.9-.2 1.6 0zm0-2h-.5 1.3zm-1.8-.3c-.6-.3-1.6-1.8-1.4-2q.2-.1.2.1 0 .4.9 1.2.7.8.3.7m0-5.7q-.5.3-1 1.2t-.5.5c0-.6.9-1.9 1.5-2q.8-.3 0 .3m-.2 7.8q-.4-.1-1.4-1t-.2-.4l1.4 1q.6.3.2.4M19.5 26q-.2-.4 0-.8l.1.4q0 .6-.1.4m-3-8.2q-1.3.4-1.3-1 .2-1.2 1.5-1c.7.4.6 1.7-.2 2M12.8 26q-.1-.4 0-.8l.1.4q0 .6-.1.4m-1.9 4q-1 .9-1.5 1-.3 0 .2-.4l1.6-1.2.8-.6zm-.6-2.1q-.9 1.2 0-.7.3-.8.4-.4 0 .6-.4 1.1m0-3.5q-.9-1.7 0-.6l.4 1q0 .4-.4-.4M9.2 23l-1.8-.5-1.3-.2h1.2a3 3 0 0 1 1.7.4q.6.4.2.3m-1.8 8q-1.4 0-.7-.1.9-.2 1.6 0zm0-2h-.6 1.3zm-1.8-.3c-.6-.3-1.7-1.8-1.4-2l.2.1q.1.4.8 1.2t.4.7m0-5.7q-.6.3-1 1.2t-.5.5c0-.6.9-1.9 1.4-2q.9-.3 0 .3m-.2 7.8q-.5-.1-1.4-1l-.3-.4 1.5 1q.6.3.2.4m0-10-1.6 1q-1.5 1.5-.4.2 1.6-1.7 2.2-1.4 0 .2-.2.2m-1-13.1.1-.6q.2-.2.2.4t-.2.2M2 26.1v-.8q.2-.2.2.4 0 .8-.2.4"/><path fill="#ca4c4c" d="M30.3 26.1v-.8q.2-.2.2.4 0 .8-.2.4M28.4 30q-1 .9-1.5 1-.2 0 .3-.4l1.5-1.2.9-.6zm.2-7.9-1.4-1q-.6-.4-.3-.4.6.1 1.5 1t.2.4m-.8 5.8q-.9 1.2 0-.7.5-.8.5-.4 0 .6-.5 1.1m0-3.5q-.9-1.7 0-.6.5.6.5 1t-.5-.4M26.7 23l-1.8-.5-1.2-.2h1.1a3 3 0 0 1 1.8.4q.5.4.1.3m-1.8 8q-1.3 0-.7-.1.9-.2 1.6 0zm0-10.6c-1.3 0-1.7 0-2.4-.8l-1-.8-1.5 1.5q-1.5 1.5-1.6 2 0 .5.9 1.2 1.1 1.3-.3-.1l-1.2-1.1 1.9-2 1.9-1.9.9.9q.8.9 2.4 1h1.6zm0 8.7q-1.1 0-.5-.2h1.3q.4.2-.8.2m-1.8-.4c-.6-.3-1.6-1.8-1.4-2q.2-.1.2.1 0 .4.9 1.2.7.8.3.7m0-5.7q-.5.3-1 1.2t-.5.5c0-.6.9-1.9 1.5-2q.8-.3 0 .3m-.2 7.8q-.4-.1-1.4-1t-.2-.4l1.4 1q.6.3.2.4M19.5 26q-.2-.4 0-.8l.1.4q0 .6-.1.4m-6.1-2.6c-1 1-1 1-.3.1q.7-.9.8-1.3c.1-.4-.7-1-1.5-1.9L10.8 19l-1 .8c-.8.8-1 1-2.4.8l-1.6-.1h1.6q1.6 0 2.5-1l.9-.9 1.9 2 1.9 1.9zm-.6 2.6q-.2-.4 0-.8l.1.4q0 .6-.1.4m-1.9 4q-1 .9-1.5 1-.3 0 .2-.4l1.6-1.2.8-.6zm-.6-2.1q-.9 1.2 0-.7.3-.8.4-.4 0 .6-.4 1.1m0-3.5q-.9-1.7 0-.6l.4 1q0 .4-.4-.4M9.2 23l-1.8-.5-1.3-.2h1.2a3 3 0 0 1 1.7.4q.6.4.2.3m-1.8 8q-1.4 0-.7-.1.9-.2 1.6 0zm0-2h-.6 1.3zm-1.8-.3c-.6-.3-1.7-1.8-1.4-2l.2.1q.1.4.8 1.2t.4.7m0-5.7q-.6.3-1 1.2t-.5.5c0-.6.9-1.9 1.4-2q.9-.3 0 .3m-.2 7.8q-.5-.1-1.4-1l-.3-.4 1.5 1q.6.3.2.4m0-10-1.6 1q-1.5 1.5-.4.2 1.6-1.7 2.2-1.4 0 .2-.2.2M1.8 26v-.8q.2-.2.2.4 0 .8-.2.4"/></svg>