<svg xmlns="http://www.w3.org/2000/svg" width="32" height="32" viewBox="0 0 32 32"><g fill="#fff" stroke="#000"><path stroke-width="1.02" d="m13.14 16.14 6.8-7.13-.04 7.26z"/><path d="m20.85 8.27 9.64.04-.04 21.32-17.9-.04a296 296 0 0 1 0-12.97h8.23z"/></g><path fill="#0a23b7" stroke="#0a23b7" d="M16.68 26.7h10.68v.04H16.68zm0-2.52h10.68v.04H16.68zm0-2.52h10.68v.04H16.68zm0-2.52h10.68v.05H16.68z"/><g fill="#fff" stroke="#000"><path stroke-width="1.02" d="m3.51 8.4 6.8-7.13-.04 7.25z"/><path d="m11.22.53 9.63.04-.04 21.32-17.9-.04c-.1-3.98-.07-12.88 0-12.97h8.23z"/></g><path fill="#0a23b7" stroke="#0a23b7" d="M7.04 18.95h10.69V19H7.04zm0-2.51h10.69v.04H7.04zm0-2.52h10.69v.04H7.04zm0-2.52h10.69v.04H7.04z"/><path fill="red" d="M11.16 22.83q0 .5-.24 1t-.66.85q-.47.37-1.1.58-.62.22-1.5.22-.94 0-1.7-.18-.75-.18-1.52-.52v-1.45h.08q.66.55 1.53.84.86.3 1.63.3 1.07 0 1.67-.4t.6-1.08q0-.58-.28-.85-.28-.28-.86-.43-.44-.12-.96-.2-.5-.07-1.08-.19-1.16-.24-1.72-.84t-.56-1.55q0-1.1.92-1.8.93-.7 2.35-.7.92 0 1.7.18.76.18 1.35.43v1.37h-.08q-.5-.42-1.31-.7t-1.66-.27q-.93 0-1.5.38-.56.39-.56 1 0 .54.28.85.28.32.99.48.37.08 1.06.2t1.18.24q.97.26 1.46.78.5.52.5 1.46m9.63 4.63q-.34.08-.7.12-.33.04-.69.04-1.02 0-1.64-.56t-.67-1.6l-.27.03h-.25q-.92 0-1.68-.3t-1.28-.88-.81-1.42q-.28-.85-.28-1.93 0-1.07.28-1.91.28-.85.82-1.46.51-.57 1.28-.87.76-.3 1.67-.3.93 0 1.68.3t1.27.87q.53.6.81 1.44.3.85.3 1.93 0 1.6-.67 2.7-.65 1.09-1.75 1.53.03.67.32 1.04.3.36 1.07.36.24 0 .56-.07.34-.07.48-.13h.16zm-1.38-6.5q0-1.7-.76-2.62t-2.08-.93-2.09.93q-.76.92-.76 2.62t.78 2.63q.77.9 2.07.9t2.07-.9.77-2.63m8.57 4.36h-5.52v-8.73h1.16v7.7H28z"/></svg>