<svg xmlns="http://www.w3.org/2000/svg" width="32" height="32" viewBox="0 0 32 32"><g fill="#fff" stroke="#000"><path stroke-width="1.02" d="m13.14 16.14 6.8-7.13-.04 7.26z"/><path d="m20.85 8.27 9.64.04-.04 21.32-17.9-.04a296 296 0 0 1 0-12.97h8.23z"/></g><path fill="#0a23b7" stroke="#0a23b7" d="M16.68 26.7h10.68v.04H16.68zm0-2.52h10.68v.04H16.68zm0-2.52h10.68v.04H16.68zm0-2.52h10.68v.05H16.68z"/><g fill="#fff" stroke="#000"><path stroke-width="1.02" d="m3.51 8.4 6.8-7.13-.04 7.25z"/><path d="m11.22.53 9.63.04-.04 21.32-17.9-.04c-.1-3.98-.07-12.88 0-12.97h8.23z"/></g><path fill="#0a23b7" stroke="#0a23b7" d="M7.04 18.95h10.69V19H7.04zm0-2.51h10.69v.04H7.04zm0-2.52h10.69v.04H7.04zm0-2.52h10.69v.04H7.04z"/></svg>