<svg viewBox="0 0 32 32" xmlns="http://www.w3.org/2000/svg"><g fill="none" stroke-width="2"><path d="m19.21 7.5q-1 .51-1.3-.33-.17-.49-.5-.78-.85-.76-.66-1.85" stroke="#b5a959"/><path d="m20.75 8.54q-.07 2.92 2.62 2.56" stroke="#b5a959"/><g stroke="#9f9f9f"><path d="m14.09 5.71c-3.55 2.15 1.9 5.39 3.16 3.47a1.03.62-52.5 0 0 .12-1.04l-2.21-2.54a1.03.54-33.4 0 0 -1.07.11"/><path d="m15.5 12.25-2.42-2.58a.62.57 52.8 0 0 -.74-.13q-4.28 2.58-2.51 7.31a1.38 1.03 6.3 0 0 .75.7q2.07.81 4.22.67c3.15-.2 6.36-3.31 1.47-5.35q-.31-.13-.77-.62"/></g></g><path d="m19.21 7.5q-1 .51-1.3-.33-.17-.49-.5-.78-.85-.76-.66-1.85l3.34-3.03a1.64.63-50.9 0 1 .82-.47c5.74-.85-1.2 5.73-1.7 6.46z" fill="#e7d030"/><path d="m16.75 4.54q-.19 1.09.66 1.85.33.29.5.78.3.84 1.3.33.41 1.04 1.54 1.04-.07 2.92 2.62 2.56 2.35 5.72-3.64 6.26a1.27 1.22 16.8 0 0 -.82.42q-2.58 2.95-6.42 2.29c-1.18-.2-2.53.08-3.03 1.1a1.08.79 51.8 0 0 .03.83q2.42 5.49-2.63 8.09a1.28 1.25 42.1 0 1 -1.05.04c-2.33-.95.16-3.44.85-4.69a1.04.85-46.8 0 0 .06-.88q-1.89-3.77.76-6.8a1.73.7 85 0 0 .31-1.01l.33-4.82a1.72 1.29-28.3 0 1 .41-.89l2.12-2.38a1.44.79 79.2 0 0 .27-.84q.15-5.42 5.83-3.28zm-2.66 1.17c-3.55 2.15 1.9 5.39 3.16 3.47a1.03.62-52.5 0 0 .12-1.04l-2.21-2.54a1.03.54-33.4 0 0 -1.07.11zm1.41 6.54-2.42-2.58a.62.57 52.8 0 0 -.74-.13q-4.28 2.58-2.51 7.31a1.38 1.03 6.3 0 0 .75.7q2.07.81 4.22.67c3.15-.2 6.36-3.31 1.47-5.35q-.31-.13-.77-.62z" fill="#828281"/><path d="m23.37 11.1q-2.69.36-2.62-2.56c.71-.48 7.1-6.97 6.17-1.5a1.78 1.23-27.2 0 1 -.45.84z" fill="#e7d030"/><g fill="#bbbcbc"><path d="m17.25 9.18c-1.26 1.92-6.71-1.32-3.16-3.47a1.03.54-33.4 0 1 1.07-.11l2.21 2.54a1.03.62-52.5 0 1 -.12 1.04z"/><path d="m16.27 12.87c4.89 2.04 1.68 5.15-1.47 5.35q-2.15.14-4.22-.67a1.38 1.03 6.3 0 1 -.75-.7q-1.77-4.73 2.51-7.31a.62.57 52.8 0 1 .74.13l2.42 2.58q.46.49.77.62z"/></g></svg>