<svg xmlns="http://www.w3.org/2000/svg" width="200" height="200" viewBox="0 0 200 200"><g fill="#fff" stroke="#000" stroke-width="7"><path d="M76.1 103.6 120.7 57l-.3 47.5z"/><path d="m126.6 52 63.1.3-.2 139.7-117.3-.3c-.6-26-.5-84.3 0-85h54z"/></g><g stroke-width="6.5"><path fill="#0a23b7" stroke="#e92929" d="M99.3 172.8h70v.3h-70zm0-16.5h70v.3h-70z"/><path fill="#0a23b7" stroke="#000" d="M99.3 139.8h70v.3h-70z"/><path stroke="#000" d="M99.3 123.3h70v.3h-70z"/></g><g fill="#fff" stroke="#000" stroke-width="7"><path d="M9.5 93.2 54 46.5 53.8 94z"/><path d="m60 41.7 63 .2-.2 139.7-117.2-.3c-.7-26-.5-84.3 0-85h53.9z"/></g><g fill="#f21247" stroke-width="6.5"><path stroke="#000" d="M32.6 162.4h70v.2h-70z"/><path stroke="#e92929" d="M32.6 145.9h70v.3h-70z"/><path stroke="#000" d="M32.6 129.4h70v.3h-70z"/><path fill="none" stroke="#000" d="M32.6 112.9h70v.3h-70z"/></g><path stroke="#000" stroke-linecap="square" stroke-width="5.5" d="M68.1 23H24zM65 12.3v19.6L90 23zm72.5 11h44.2zm3-10.7v19.7l-24.8-9z"/></svg>