<svg xmlns="http://www.w3.org/2000/svg" viewBox="0 0 32 32"><g fill="none" stroke-width="2"><path stroke="#c1c1c1" d="M5.8 4.7Q16 7.1 26 4.1q1-.3 0-.5-10-3-20.1-.4-3.2.8 0 1.5"/><path stroke="#b9b9b9" d="M26.8 5.8A54 54 0 0 1 4 5.7a.4.3 4.5 0 0-.6.3l2.9 19q.3 2 2.5 2.9 7 2.4 14-.1 1.5-.6 1.8-2.3l3-19a.6.6 89 0 0-.8-.7"/><path stroke="#8fbb81" d="m16 12.3.6 1.7a1 .3 74.9 0 0 .4.7q3.4.4 3.2-2.8a1.2.8 20 0 0-.5-.7c-6.1-4-13.3 2.7-7.4 4a1 .8 22.3 0 0 1-.2l1.8-2.6q.7-1 1-.1"/><path stroke="#87b47b" d="M20.3 20.7q-5.4-1.2-3 3.8a.8.4-15.4 0 0 .7.2c7.4-1.6 5.3-13.3.7-8.1v.8l2 2.7q.5.8-.4.6"/><path stroke="#8fbb81" d="M12.8 24.6q3.5.3 2-3.7l-.7-.5-2.3.1a1 1-2 0 1-.8-.5q0-1 .8-1.4a.7.3-27.6 0 0 .5-.6q-.5-1.8-2.3-2a1.7 1.5 3.2 0 0-2 1.5c.2 2.8 1.4 6.8 4.8 7.1"/></g><path fill="#959595" d="m29 7.5-3 18.9q-.6 3-3.8 3.4c-4.2.4-16.3 2-17.3-3.7q-.7-4-1-8.2 0-.4-.4-.9c-.8-1.2-.6-4.3-1-6-.9-3.8-1.8-9.6 4-9.9q6.9-.3 13.7 0c5.4.2 9.7-.6 8.7 6.3M5.8 4.7Q16 7.1 26 4.1q1-.3 0-.5-10-3-20.1-.4-3.2.8 0 1.5m21 1A54 54 0 0 1 4 5.8a.4.3 4.5 0 0-.6.3l2.9 19q.3 2 2.5 2.9 7 2.4 14-.1 1.5-.6 1.8-2.3l3-19a.6.6 89 0 0-.8-.7"/><path fill="#ecedec" d="M5.8 4.7q-3.2-.7 0-1.5Q16 .7 26 3.6q1 .2 0 .5-10 3-20.2.6"/><path fill="#dddddc" d="M4 5.7a54 54 0 0 0 22.8 0 .6.6 89 0 1 .7.8l-2.9 19q-.3 1.7-1.8 2.3-7 2.5-14 0-2.2-.7-2.5-2.9L3.5 6a.4.3 4.5 0 1 .5-.3m12 6.6.6 1.7a1 .3 74.9 0 0 .4.7q3.4.4 3.2-2.8a1.2.8 20 0 0-.5-.7c-6.1-4-13.3 2.7-7.4 4a1 .8 22.3 0 0 1-.2l1.8-2.6q.6-1 1-.1m4.3 8.4q-5.4-1.2-3 3.8a.8.4-15.4 0 0 .7.2c7.4-1.7 5.3-13.3.7-8.1v.8l2 2.7q.5.8-.4.6m-7.5 4q3.5.2 2-3.8l-.7-.5-2.3.1a1 1-2 0 1-.8-.5q0-1 .8-1.4a.7.3-27.6 0 0 .5-.6q-.5-1.8-2.3-2a1.7 1.5 3.2 0 0-2 1.5c.2 2.8 1.4 6.8 4.8 7.1"/><path fill="#409826" d="M15.1 12.4 13.2 15a1 .8 22.3 0 1-.9.2c-5.9-1.3 1.3-8 7.4-4a1.2.8 20 0 1 .5.7q.2 3.2-3.2 2.8a1 .3 74.9 0 1-.4-.7l-.6-1.7q-.3-.8-.9 0"/><path fill="#308a19" d="m20.6 20-2-2.6.1-.8c4.6-5.2 6.7 6.5-.7 8.1a.8.4-15.4 0 1-.8-.2q-2.2-5 3-3.8 1 .2.4-.6"/><path fill="#409826" d="M12.8 24.6c-3.4-.3-4.6-4.3-4.7-7.1a1.7 1.5 3.2 0 1 2-1.5q1.7.2 2.2 2a.7.3-27.6 0 1-.5.6Q11 19 11 20a1 1-2 0 0 .8.5l2.3-.1a1 1-11.2 0 1 .8.5q1.4 4-2 3.7"/></svg>