<svg xmlns="http://www.w3.org/2000/svg" width="223.24" height="223.24" viewBox="0 0 6.36 6.36"><g stroke-width=".03"><path fill="none" d="M1.09 4.3.06 2.37l2.06-1.1L4.18.17 5.2 2.1l1.02 1.92-2.05 1.1-2.06 1.1z"/><path fill="#dbe3ef" d="m3.82 4.45-.14-.25.43-.23c.35-.19.44-.25.55-.4.31-.43.17-.94-.3-1.12-.32-.11-.38-.1-1.37.44l-.9.48.16.34.16.34-.76-.18-.78-.2.27-.76.27-.73.2.32.18.33.96-.5.96-.5.24-.02c1.02-.08 1.74.8 1.4 1.73-.14.39-.36.6-.93.9l-.47.26z"/><path fill="#cedae9" d="m3.82 4.45-.13-.24.48-.28.48-.27.09-.19c.19-.39.06-.82-.3-1-.32-.16-.42-.14-1.45.42l-.91.48.16.33.17.34-.76-.19-.77-.19.27-.73.27-.74.19.32.18.32.77-.41a4 4 0 0 1 1.46-.6c.99-.07 1.66.83 1.3 1.74-.15.4-.35.6-.92.9l-.45.24z"/><path fill="#bacae1" d="m3.82 4.45-.14-.25.43-.23c.46-.24.59-.35.67-.57a1 1 0 0 0-.02-.64 1 1 0 0 0-.63-.37l-.22-.02-.93.48-.93.48.18.33c.1.18.16.34.14.35l-.76-.17-.73-.18.26-.7c.14-.39.27-.71.3-.72 0-.01.1.13.2.3l.17.33.96-.51.97-.52h.32c1.15-.05 1.76 1.13 1.08 2.06-.14.2-.21.25-.67.51l-.52.3z"/><path fill="#afc3dd" d="m3.82 4.45-.14-.25.44-.23c.5-.27.61-.39.7-.69.14-.53-.36-1.01-.92-.88-.1.03-.55.25-1 .49l-.84.44.17.33c.1.18.16.34.14.34-.01.01-.36-.06-.76-.16l-.73-.18.26-.7c.14-.39.27-.71.3-.72 0-.01.1.12.2.3l.17.33 1-.52 1-.52h.29a1.28 1.28 0 0 1 1.01 2.1c-.13.17-.25.26-.66.5l-.5.28z"/><path fill="#a6bbd9" d="m3.82 4.45-.14-.25.44-.23c.5-.27.61-.39.7-.69.12-.46-.23-.9-.73-.9h-.2l-.91.47-.93.48.18.33c.1.18.16.34.14.34-.01.01-.36-.06-.76-.16l-.73-.17.26-.7c.14-.4.27-.72.3-.73 0-.01.1.12.2.3l.17.33 1-.52c1.1-.57 1.1-.57 1.59-.5.63.09 1.13.8 1 1.44-.1.52-.38.84-1.06 1.2l-.4.21z"/><path fill="#8faad0" d="m3.82 4.45-.14-.25.46-.25c.38-.2.47-.26.57-.4.4-.59-.11-1.3-.82-1.15-.1.03-.5.23-1 .5l-.84.47.14.32.15.32-.73-.17-.73-.18.26-.7.27-.7.18.3.19.3 1-.5 1-.51.23-.02a1.28 1.28 0 0 1 1.12 2.08c-.16.2-.23.26-.68.51l-.5.29z"/><path fill="#7397c6" d="m3.82 4.45-.14-.25.46-.24c.55-.3.68-.45.7-.8.04-.48-.32-.82-.83-.77-.18.01-.32.07-1.1.49l-.9.48.17.32.16.33-.72-.18-.72-.17.25-.7.26-.7.18.32.18.31.92-.49c1.1-.59 1.24-.63 1.73-.52.6.13.98.6.98 1.2 0 .59-.23.91-.97 1.35l-.48.28z"/><path fill="#408bec" d="m3.82 4.45-.12-.21.34-.18c.6-.33.81-.57.82-.93a.75.75 0 0 0-.54-.73c-.3-.09-.41-.05-1.4.47l-.9.49.16.32.15.32-.7-.17-.7-.19.23-.7.25-.67.18.3.18.32 1-.52 1-.52.27-.01c1.14-.04 1.76 1.13 1.1 2.03l-.2.25-.5.27-.51.27z"/><path fill="#6288bd" d="m3.82 4.45-.12-.21.34-.18c.6-.33.81-.57.82-.93a.75.75 0 0 0-.54-.73c-.3-.09-.41-.05-1.4.47l-.9.49.16.32.15.32-.7-.17-.7-.19.23-.7.25-.67.18.3.18.32 1-.52 1-.52.27-.01c1.14-.04 1.76 1.13 1.1 2.03l-.2.25-.5.27-.51.27zM5 3.96c.32-.33.44-.9.27-1.32A1.3 1.3 0 0 0 4 1.9l-.24.01-1 .52-1.01.52-.16-.28-.16-.27-.23.6-.23.62.63.15.64.15-.14-.3-.14-.28.94-.5.95-.51.2-.01a.8.8 0 0 1 .68 1.29c-.14.18-.21.24-.54.42l-.39.2.1.17.09.18.42-.23q.43-.23.58-.39z"/><path fill="#4584d7" d="m3.82 4.45-.11-.2.45-.27c.51-.3.63-.42.69-.73a1 1 0 0 0-.2-.68 1 1 0 0 0-.66-.2c-.12.01-.4.15-1.07.5l-.9.49.16.32.15.32-.7-.18-.7-.18.24-.68.24-.69.18.31.18.3.98-.5.99-.51.25-.02A1.26 1.26 0 0 1 5.1 3.92c-.14.18-.22.23-.67.47l-.5.27zM5 3.96c.32-.33.44-.9.27-1.32A1.3 1.3 0 0 0 4 1.9l-.24.01-1 .52-1.01.52-.16-.28-.16-.27-.23.6-.23.62.63.15.64.15-.14-.3-.14-.28.94-.5.95-.51.2-.01a.8.8 0 0 1 .68 1.29c-.14.18-.21.24-.54.42l-.39.2.1.17.09.18.42-.23q.43-.22.58-.39z"/><path fill="#5782bb" d="M3.82 4.45q-.1-.2-.09-.23.04.01.15.2c.06.11.1.22.08.22q-.04 0-.14-.2m1-.31c.32-.25.55-.68.55-1.07q0-.13.03-.1c.01.02.01.14 0 .28-.05.37-.34.81-.62.95q-.18.1.04-.06m-.32-.36q.04-.04.1-.06.07-.01-.04.05-.08.04-.06 0m.24-.24q.21-.32.05-.74l-.1-.25.1.18c.06.1.11.26.11.35 0 .18-.12.53-.2.58q-.04 0 .04-.12m.53-.9q-.25-.57-.02-.14a1 1 0 0 1 .13.32q0 .07-.11-.18m-3.64 1.2-.7-.18.24-.68.24-.68.18.3.18.31.94-.49.94-.48-.95.52-.95.51-.16-.28-.17-.28-.23.62-.22.61.63.16.64.15-.14-.3-.14-.29.93-.5.93-.5.23-.01c.21-.01.6.13.58.21q-.01.03-.04 0c-.04-.08-.43-.19-.6-.17-.12.01-.4.15-1.07.5l-.9.49.16.32.15.32zm3.4-1.56-.09-.1-.06-.06.08.04q.09.05.1.1 0 .07-.03.02m-.4-.27c-.13-.06-.34-.1-.5-.1q-.46-.02-.05-.05c.21-.01.53.07.68.16q.25.16-.13-.01m-.9-.07q.04-.05.07-.04.03 0-.04.05-.07.03-.04-.01"/><path fill="#4b81c7" d="M3.82 4.45q-.1-.2-.09-.23.04.01.15.2c.06.11.1.22.08.22q-.04 0-.14-.2m.89-.24q.06-.05.14-.08.07 0-.06.06c-.13.06-.12.05-.08.02m.35-.3c.08-.1.19-.3.24-.44l.1-.26-.07.25c-.08.25-.25.54-.36.6q-.04 0 .09-.15m-.51-.16.08-.04q.02.02-.05.05t-.03 0m.16-.16q.06-.08.12-.22c.06-.14.03-.05 0 .06-.05.1-.1.2-.13.22q-.05.03 0-.06m.66-.5q0-.2.03-.12.01.04 0 .14l-.02.11zm-.5.03a1 1 0 0 0-.08-.32l-.1-.26.12.25c.07.14.11.28.1.32q-.04.1-.03 0m.47-.28q-.03-.07.01-.04.05.04.04.08-.01.03-.05-.04m-.12-.33q-.03-.07.01-.04t.04.08q-.02.02-.05-.04m-3.6 1.3-.7-.17.25-.67.25-.68.17.3.18.3.94-.49.94-.48-.95.52-.95.51-.16-.28-.17-.28-.23.62-.22.61.63.16.64.15-.14-.3-.14-.29.93-.5.93-.5.22-.01a1 1 0 0 1 .3.02q.06.03-.15.02l-.24-.02-.97.5-.96.5.15.32.16.32zm3.52-1.45q-.04-.07 0-.04.05.04.04.07 0 .02-.04-.03m-.62.12-.1-.08.1.04.11.07q.05.09-.11-.03m.51-.22-.09-.1-.06-.06.08.04q.09.05.1.1 0 .07-.03.02m-.4-.27c-.13-.06-.34-.1-.5-.1s-.26-.02-.24-.03c.14-.07.68.03.94.18.12.07 0 .04-.2-.05"/><path fill="#4d7fc1" d="M3.83 4.44q-.11-.2-.04-.11c.04.06.1.17.12.23q.03.08-.08-.12m.98-.28q.05-.05.08-.04.02 0-.04.04-.07.05-.04 0m.33-.3q0-.04.06-.15t.07-.07c0 .06-.12.24-.13.21m.18-.46.04-.1.04-.1-.02.1q-.03.16-.06.1m-.77.35.08-.04q.03.02-.05.05t-.03 0m.27-.38.07-.16-.02.13-.07.16zm.55-.27q0-.21.03-.13.01.04 0 .14l-.02.11zm-.6-.35q-.08-.16-.02-.1l.1.2q.01.06-.07-.1m.45-.24q-.03-.07.01-.04.04.05.04.08-.02.02-.05-.04M2.2 3.95q-.14-.06-.03-.04l.1.02-.16-.3-.16-.29.95-.49.94-.49-.91.5-.9.5.15.32.15.31zm2.94-1.6q-.04-.06 0-.03.05.04.04.07 0 .02-.04-.03m-.62.13-.1-.08.1.04.11.07q.06.09-.11-.03M1.39 3.77l-.46-.13.17-.47.16-.47-.14.46-.15.46.46.13c.25.06.45.13.44.13s-.23-.04-.48-.11M4.44 1.9l-.19-.06.2.05.2.05q.03.05-.21-.04m-2.85.76-.15-.3-.05.1q-.04.1 0-.04l.03-.14.17.3.18.31.94-.49.94-.48-.95.52-.95.52z"/><path fill="#4e7ab5" d="M3.83 4.44q-.11-.2-.04-.11c.04.06.1.17.12.23q.03.08-.08-.12m.98-1 .03-.11.05-.1-.02.1q-.04.15-.06.1m-.04-.69q-.06-.13-.01-.08l.08.16q0 .05-.07-.08m.37-.4q-.04-.06 0-.03.05.03.04.07 0 .02-.04-.03M1.5 3.8l-.34-.1.35.08c.32.08.38.1.35.12zm2.94-1.9-.2-.06.2.04.2.06q.04.05-.2-.04M1.12 3.07l.13-.34-.09.32-.13.34c-.01 0 .03-.14.1-.32m1.12-.41"/></g></svg>