<svg xmlns="http://www.w3.org/2000/svg" width="223.24" height="223.24" viewBox="0 0 6.36 6.36"><g stroke-width=".03"><path fill="none" d="m5.2 4.3 1.03-1.93-2.05-1.1L2.12.17 1.09 2.1.06 4.02l2.06 1.1 2.06 1.1z"/><path fill="#dbe3ef" d="m2.48 4.45.13-.25-.42-.23c-.36-.19-.44-.25-.56-.4-.3-.43-.16-.94.3-1.12.33-.11.39-.1 1.38.44l.9.48-.16.34-.17.34.77-.18.77-.2-.26-.76-.28-.73-.19.32-.18.33-.97-.5-.96-.5-.24-.02c-1.02-.08-1.73.8-1.4 1.73.14.39.36.6.93.9l.48.26z"/><path fill="#cedae9" d="m2.48 4.45.13-.24-.48-.28-.48-.27-.1-.19c-.18-.39-.06-.82.3-1 .33-.16.42-.14 1.46.42l.9.48-.16.33-.16.34.76-.19.76-.19-.27-.73-.26-.74-.2.32-.18.32-.77-.41a4 4 0 0 0-1.45-.6 1.26 1.26 0 0 0-1.3 1.74c.15.4.34.6.92.9l.45.24z"/><path fill="#bacae1" d="m2.48 4.45.13-.25-.43-.23c-.45-.24-.58-.35-.67-.57a1 1 0 0 1 .02-.64c.1-.18.4-.36.64-.37l.22-.02.93.48.92.48-.17.33c-.1.18-.17.34-.15.35s.36-.07.76-.17l.73-.18-.26-.7a7 7 0 0 0-.29-.72c-.01-.01-.1.13-.2.3l-.18.33-.96-.51-.96-.52h-.33C1.09 1.78.48 2.96 1.16 3.9c.13.2.2.25.67.51l.51.3z"/><path fill="#afc3dd" d="m2.48 4.45.13-.25-.43-.23c-.5-.27-.62-.39-.7-.69-.14-.53.36-1.01.92-.88.1.03.55.25 1 .49l.84.44-.18.33c-.1.18-.16.34-.14.34.02.01.36-.06.76-.16l.73-.18-.26-.7a7 7 0 0 0-.29-.72c-.01-.01-.1.12-.2.3l-.17.33-1-.52-1.01-.52H2.2a1.28 1.28 0 0 0-1.02 2.1c.14.17.26.26.67.5l.5.28z"/><path fill="#a6bbd9" d="m2.48 4.45.13-.25-.43-.23c-.5-.27-.62-.39-.7-.69-.13-.46.22-.9.73-.9h.19l.92.47.92.48-.18.33c-.1.18-.16.34-.14.34.02.01.36-.06.76-.16l.73-.17-.26-.7-.29-.73c-.01-.01-.1.12-.2.3l-.17.33-1-.52c-1.1-.57-1.1-.57-1.6-.5-.62.09-1.12.8-1 1.44.1.52.39.84 1.07 1.2l.39.21z"/><path fill="#8faad0" d="m2.48 4.45.13-.25-.45-.25c-.39-.2-.48-.26-.57-.4-.4-.59.1-1.3.81-1.15.1.03.5.23 1.01.5l.84.47-.15.32-.14.32.72-.17.73-.18-.26-.7-.26-.7-.19.3-.18.3-1-.5-1-.51-.23-.02a1.28 1.28 0 0 0-1.12 2.08c.16.2.23.26.67.51l.5.29z"/><path fill="#7397c6" d="m2.48 4.45.13-.25-.45-.24c-.55-.3-.69-.45-.71-.8-.04-.48.33-.82.84-.77.17.01.31.07 1.1.49l.89.48-.16.32-.16.33.72-.18.72-.17-.26-.7-.25-.7-.18.32-.19.31-.91-.49c-1.1-.59-1.25-.63-1.74-.52-.6.13-.98.6-.98 1.2 0 .59.23.91.98 1.35l.47.28z"/><path fill="#408bec" d="m2.48 4.45.11-.21-.34-.18c-.6-.33-.8-.57-.81-.93 0-.34.2-.63.53-.73.31-.09.41-.05 1.4.47l.9.49-.15.32-.16.32.7-.17.7-.19c.02 0-.1-.32-.23-.7l-.25-.67-.17.3-.18.32-1-.52-1.01-.52-.27-.01C1.12 1.8.5 2.97 1.16 3.87l.2.25.5.27.5.27z"/><path fill="#6288bd" d="m2.48 4.45.11-.21-.34-.18c-.6-.33-.8-.57-.81-.93 0-.34.2-.63.53-.73.31-.09.41-.05 1.4.47l.9.49-.15.32-.16.32.7-.17.7-.19c.02 0-.1-.32-.23-.7l-.25-.67-.17.3-.18.32-1-.52-1.01-.52-.27-.01C1.12 1.8.5 2.97 1.16 3.87l.2.25.5.27.5.27zM1.3 3.96a1.3 1.3 0 0 1-.27-1.32c.19-.47.7-.78 1.27-.74l.24.01 1 .52 1 .52.17-.28.16-.27.23.6.22.62-.63.15-.63.15.14-.3.14-.28-.95-.5-.95-.51-.2-.01a.8.8 0 0 0-.68 1.29c.14.18.22.24.55.42l.38.2-.1.17-.08.18-.43-.23a3 3 0 0 1-.58-.39"/><path fill="#4584d7" d="m2.48 4.45.1-.2-.45-.27c-.5-.3-.62-.42-.68-.73a1 1 0 0 1 .2-.68c.1-.11.46-.22.65-.2.12.01.4.15 1.07.5l.9.49-.15.32-.16.32.7-.18.7-.18-.23-.68-.25-.69-.18.31-.17.3-.99-.5-.98-.51-.25-.02a1.26 1.26 0 0 0-1.12 2.07c.15.18.23.23.67.47l.5.27zM1.3 3.96a1.3 1.3 0 0 1-.27-1.32c.19-.47.7-.78 1.27-.74l.24.01 1 .52 1 .52.17-.28.16-.27.23.6.22.62-.63.15-.63.15.14-.3.14-.28-.95-.5-.95-.51-.2-.01a.8.8 0 0 0-.68 1.29c.14.18.22.24.55.42l.38.2-.1.17-.08.18-.43-.23a3 3 0 0 1-.58-.39"/><path fill="#5782bb" d="M2.48 4.45q.1-.2.08-.23-.04.01-.14.2c-.06.11-.1.22-.08.22q.03 0 .14-.2m-1-.31a1.5 1.5 0 0 1-.56-1.07q0-.13-.03-.1l.01.28c.05.37.33.81.61.95q.19.1-.03-.06m.31-.36q-.04-.04-.1-.06c-.06-.02-.02.02.04.05q.1.04.06 0m-.23-.24q-.21-.32-.05-.74l.1-.25-.11.18a1 1 0 0 0-.1.35c-.01.18.11.53.2.58q.02 0-.04-.12m-.53-.9q.24-.57.01-.14c-.06.12-.12.27-.13.32q0 .07.12-.18M4.67 3.8l.7-.18-.24-.68-.25-.68-.18.3-.18.31-.94-.49-.94-.48.95.52.95.51.17-.28.17-.28.22.62.23.61-.64.16-.64.15.15-.3.14-.29-.93-.5-.94-.5-.22-.01c-.22-.01-.61.13-.58.21q0 .03.03 0c.04-.08.44-.19.6-.17.12.01.4.15 1.07.5l.9.49-.15.32-.16.32zm-3.4-1.56.08-.1.06-.06-.08.04q-.08.05-.09.1 0 .07.02.02m.4-.27c.12-.06.33-.1.5-.1q.46-.02.05-.05c-.21-.01-.54.07-.69.16q-.25.16.13-.01m.9-.07q-.04-.05-.08-.04-.03 0 .04.05.08.03.04-.01"/><path fill="#4b81c7" d="M2.48 4.45q.1-.2.08-.23-.04.01-.14.2c-.06.11-.1.22-.08.22q.03 0 .14-.2m-.9-.24-.14-.08q-.05 0 .07.06c.12.06.11.05.08.02m-.34-.3c-.08-.1-.2-.3-.25-.44L.9 3.2l.08.25c.07.25.25.54.36.6q.03 0-.1-.15m.51-.16-.08-.04q-.03.02.04.05t.04 0m-.16-.16q-.07-.08-.12-.22c-.05-.14-.03-.05 0 .06.04.1.1.2.12.22q.05.03 0-.06m-.67-.5q0-.2-.03-.12v.14l.03.11zm.5.03c0-.04.03-.19.09-.32l.09-.26-.12.25a1 1 0 0 0-.09.32q.04.1.03 0m-.47-.28q.04-.07 0-.04-.05.04-.04.08 0 .03.04-.04m.13-.33q.02-.07-.01-.04-.05.04-.04.08.01.02.05-.04m3.59 1.3.7-.17-.25-.67-.24-.68-.18.3-.18.3-.94-.49-.94-.48.95.52.95.51.17-.28.17-.28.22.62.23.61-.64.16-.64.15.15-.3.14-.29-.93-.5-.94-.5-.21-.01a1 1 0 0 0-.3.02q-.08.03.15.02l.24-.02.96.5.97.5-.16.32-.15.32zM1.16 2.36q.03-.07-.01-.04-.05.04-.04.07.01.02.05-.03m.62.12.1-.08-.1.04q-.09.04-.12.07-.05.09.12-.03m-.52-.22.1-.1.05-.06-.08.04q-.08.05-.09.1 0 .07.02.02m.4-.27c.13-.06.34-.1.5-.1s.27-.02.24-.03c-.14-.07-.68.03-.93.18-.12.07-.01.04.2-.05"/><path fill="#4d7fc1" d="M2.47 4.44q.1-.2.04-.11c-.05.06-.1.17-.13.23q-.02.08.09-.12m-.99-.28q-.04-.05-.08-.04-.03 0 .05.04.07.05.03 0m-.32-.3q0-.04-.06-.15-.07-.11-.07-.07c0 .06.11.24.13.21M.97 3.4l-.03-.1-.05-.1.02.1q.04.16.06.1m.78.35-.08-.04q-.02.02.04.05.08.04.04 0m-.28-.38L1.4 3.2l.03.13q.04.18.07.16l-.03-.13M.92 3.1q0-.21-.03-.13v.14l.03.11zm.6-.35q.09-.16.03-.1l-.1.2q-.02.06.07-.1m-.44-.24q.03-.07-.02-.04-.04.05-.03.08t.05-.04M4.1 3.95q.14-.06.03-.04l-.1.02.15-.3.16-.29-.94-.49-.94-.49.9.5.91.5-.15.32-.15.31zm-2.94-1.6q.03-.06-.01-.03-.05.04-.04.07.01.02.05-.03m.62.13.1-.08-.1.04q-.1.04-.12.07-.05.09.12-.03M4.9 3.77l.46-.13-.17-.47-.17-.47.15.46.15.46-.46.13c-.26.06-.46.13-.44.13 0 0 .22-.04.48-.11M1.86 1.9l.19-.06-.2.05-.2.05q-.04.05.2-.04m2.84.76.16-.3.04.1q.06.1.01-.04l-.03-.14-.18.3-.18.31-.94-.49-.94-.48.95.52.96.52z"/><path fill="#4e7ab5" d="M2.47 4.44q.1-.2.04-.11c-.05.06-.1.17-.13.23q-.02.08.09-.12m-.98-1q0-.03-.04-.11l-.04-.1.02.1q.03.15.06.1m.03-.69q.07-.13.02-.08l-.08.16q0 .05.06-.08m-.36-.4q.03-.06-.01-.03-.05.03-.04.07.01.02.05-.03M4.79 3.8l.34-.1-.35.08c-.32.08-.38.1-.34.12zM1.86 1.9l.19-.06-.2.04-.2.06c-.01.03.03.02.2-.04m3.31 1.17-.13-.34c0-.01.03.13.1.32l.12.34c.02 0-.02-.14-.09-.32m-1.11-.41"/></g></svg>