<svg xmlns="http://www.w3.org/2000/svg" width="223.24" height="223.24" viewBox="0 0 6.36 6.36"><linearGradient id="a" x1="145.77" x2="148.53" y1="130.59" y2="130.59" gradientUnits="userSpaceOnUse"><stop offset="0" stop-color="#fff"/><stop offset="1" stop-color="#2037b8"/></linearGradient><g stroke-width=".03"><path fill="none" d="M6.37 3.23V.05H.1V6.4h6.26z"/><path fill="url(#a)" d="M148.13 131.94c-.05-.02-.24-.2-.42-.38-.28-.27-.34-.35-.31-.38q.03-.03-.08-.15l-.11-.11-.15.07a.92.92 0 0 1-1.29-.83.92.92 0 0 1 1.75-.44c.12.25.13.54.03.78l-.07.15.11.1q.12.13.15.09c.05-.05.73.62.78.76a.3.3 0 0 1-.16.34c-.12.05-.12.05-.23 0" transform="matrix(-2 0 0 2 326.4 -288.18)"/><path fill="#d2d2d3" d="M1.02 6.27q.2-.06.96-.84c.68-.7.77-.8.7-.9-.08-.08-.05-.13.15-.35l.24-.24.24.12c1.33.7 2.93-.3 2.94-1.83 0-.61-.15-1-.6-1.46a1.8 1.8 0 0 0-1.43-.6 2.07 2.07 0 0 0-1.8 2.98l.12.25-.24.24c-.21.21-.26.23-.35.16s-.2.01-.88.7C.13 5.47.02 5.74.4 6.12c.18.18.36.23.62.16m2.69-2.9c-1.24-.6-.74-2.55.61-2.43.72.06 1.14.53 1.14 1.26 0 .37-.02.46-.19.7-.36.51-1 .7-1.56.44"/><path fill="#7cd6f4" d="M1.9 5.5c.69-.68.78-.8.75-.94-.02-.13.02-.22.2-.4l.24-.23.25.13c.98.5 2.18.08 2.7-.93.24-.44.25-1.37.02-1.81a2.3 2.3 0 0 0-.91-.94 2.3 2.3 0 0 0-1.82 0 2.1 2.1 0 0 0-.9 2.74l.12.26-.23.24c-.18.19-.26.23-.39.2-.14-.02-.26.07-.93.77l-.77.79v.26c0 .38.26.64.63.64h.26zm1.8-2.14c-.97-.5-.93-1.9.06-2.32C4.58.69 5.5 1.3 5.5 2.2c0 .94-1 1.57-1.8 1.15"/><path fill="#a5a6a8" d="M1.9 5.5c.69-.68.78-.8.75-.94-.02-.13.02-.22.2-.4l.24-.23.25.13c.98.5 2.18.08 2.7-.93.24-.44.25-1.37.02-1.81a2.3 2.3 0 0 0-.91-.94 2.3 2.3 0 0 0-1.82 0 2.1 2.1 0 0 0-.9 2.74l.12.26-.23.24c-.18.19-.26.23-.39.2-.14-.02-.26.07-.93.77l-.77.79v.26c0 .38.26.64.63.64h.26zm1.5-1.6q-1-.5-1-1.69c0-.57.14-.94.5-1.32a1.85 1.85 0 0 1 3.02.51c.75 1.63-.93 3.3-2.52 2.5m1.29-.31c.62-.24.96-.73.96-1.38 0-.83-.6-1.43-1.41-1.43-1.48 0-1.98 2.03-.66 2.71.3.17.81.21 1.1.1m-1-.23c-.97-.5-.93-1.9.06-2.32C4.58.69 5.5 1.3 5.5 2.2c0 .94-1 1.57-1.8 1.15"/><path fill="#68b4cd" d="M1.88 5.46c.66-.67.8-.84.75-.91s-.02-.14.2-.36l.27-.27.27.15c.23.12.37.14.87.14h.6l.33-.18A2.06 2.06 0 0 0 5.65.77a2 2 0 0 0-3.2.5l-.18.34v.6c0 .51.02.65.14.88l.15.28-.27.28c-.21.22-.28.26-.35.2s-.24.08-.9.75l-.8.83v.24c0 .33.27.61.6.61h.23zM3.4 3.9c-.66-.32-1-.91-1-1.69 0-.57.14-.94.5-1.32a1.85 1.85 0 0 1 3.02.51c.75 1.63-.93 3.3-2.52 2.5m1.29-.31c.62-.24.96-.73.96-1.38 0-.83-.6-1.43-1.41-1.43-1.48 0-1.98 2.03-.66 2.71.3.17.81.21 1.1.1m-1.15-.3a1.3 1.3 0 0 1-.23-1.94c.3-.33.57-.44 1.05-.4.78.06 1.26.76 1.1 1.61-.04.27-.41.71-.69.84-.3.14-.97.08-1.23-.1"/><path fill="#5691a5" d="M1.88 5.46c.66-.67.8-.84.75-.91s-.02-.14.2-.36l.27-.27.27.15c.23.12.37.14.87.14h.6l.33-.18A2.06 2.06 0 0 0 5.65.77a2 2 0 0 0-3.2.5l-.18.34v.6c0 .51.02.65.14.88l.15.28-.27.28c-.21.22-.28.26-.35.2s-.24.08-.9.75l-.8.83v.24c0 .33.27.61.6.61h.23zm1.5-1.57a2 2 0 0 1-.84-.87c-.2-.39-.2-1.23 0-1.62Q3.09.33 4.24.33c2.12 0 2.58 2.94.58 3.7a2 2 0 0 1-1.45-.14m1.3-.31c.68-.22 1.1-.97.94-1.68-.07-.29-.14-.4-.4-.68-.6-.6-1.4-.6-1.97-.02-1.05 1.06.02 2.84 1.44 2.38M3.55 3.3a1.3 1.3 0 0 1-.23-1.95c.3-.33.57-.44 1.05-.4.78.06 1.26.76 1.1 1.61-.04.27-.41.71-.69.84-.3.14-.97.08-1.23-.1"/><path fill="#5b7093" d="M1.88 5.46c.66-.67.8-.84.75-.91s-.02-.14.2-.36l.27-.27.27.15c.23.12.37.14.87.14h.6l.33-.18A2.06 2.06 0 0 0 5.65.77a2 2 0 0 0-3.2.5l-.18.34v.6c0 .51.02.65.14.88l.15.28-.27.28c-.21.22-.28.26-.35.2s-.24.08-.9.75l-.8.83v.24c0 .33.27.61.6.61h.23zm1.7-1.45c-.44-.15-.97-.7-1.12-1.15-.3-.92.09-1.9.93-2.36A2 2 0 0 1 5.04.48q.57.3.86.85c.26.48.27 1.26.02 1.74A1.9 1.9 0 0 1 3.58 4m.94-.4a1.4 1.4 0 0 0 1.1-1.4c0-.82-.57-1.4-1.38-1.4a1.4 1.4 0 0 0-1.06 2.31c.36.42.88.61 1.34.5m-.98-.31a1.3 1.3 0 0 1-.23-1.95c.3-.33.57-.44 1.05-.4.78.06 1.26.76 1.1 1.61-.04.27-.41.71-.69.84-.3.14-.97.08-1.23-.1"/><path fill="#8a7045" d="M1.88 5.46c.66-.67.8-.84.75-.91s-.02-.14.19-.35l.26-.27.38.16a2 2 0 0 0 2.58-.98c.23-.48.25-1.27.04-1.74-.18-.38-.6-.8-1-1a2.2 2.2 0 0 0-1.73.02A2.06 2.06 0 0 0 2.39 3l.16.38-.26.27c-.21.22-.28.26-.35.2s-.24.08-.9.75l-.8.83v.24c0 .33.27.61.6.61h.23zm.42-1.31-.15-.16.24-.25.24-.25.17.17.18.17-.23.24c-.27.28-.26.28-.45.08m1.28-.14a2.2 2.2 0 0 1-1.11-1.13A1.9 1.9 0 0 1 2.93.86c1.39-1.4 3.65.02 3.1 1.95a2 2 0 0 1-1.1 1.2c-.38.13-.97.13-1.35 0m.88-.4c1.35-.2 1.6-2.16.33-2.7a1.4 1.4 0 0 0-1.94 1.3c0 .89.74 1.53 1.6 1.4m-.9-.3c-.86-.5-.77-1.89.16-2.29.26-.1.78-.1 1.04 0 .28.12.65.56.7.84.23 1.22-.87 2.06-1.9 1.46"/><path fill="#585a5e" d="M1.88 5.46c.66-.67.8-.84.75-.91s-.02-.14.19-.35l.26-.27.38.16a2 2 0 0 0 2.58-.98c.23-.48.25-1.27.04-1.74-.18-.38-.6-.8-1-1a2.2 2.2 0 0 0-1.73.02A2.06 2.06 0 0 0 2.39 3l.16.38-.26.27c-.21.22-.28.26-.35.2s-.24.08-.9.75l-.8.83v.24c0 .33.27.61.6.61h.23zM.51 6c-.29-.3-.22-.43.6-1.27l.75-.77.33.34.33.33-.76.76C.93 6.23.8 6.3.51 6M2.3 4.15l-.15-.16.24-.25.24-.25.17.17.18.17-.23.24c-.27.28-.26.28-.45.08m1.28-.14a2.2 2.2 0 0 1-1.11-1.13A1.9 1.9 0 0 1 2.93.86c1.39-1.4 3.65.02 3.1 1.95a2 2 0 0 1-1.1 1.2c-.38.13-.97.13-1.35 0m.88-.4c1.35-.2 1.6-2.16.33-2.7a1.4 1.4 0 0 0-1.94 1.3c0 .89.74 1.53 1.6 1.4m-.9-.3c-.86-.5-.77-1.89.16-2.29.26-.1.78-.1 1.04 0 .28.12.65.56.7.84.23 1.22-.87 2.06-1.9 1.46"/><path fill="#325663" d="M4.23.21H4.2c-.8 0-1.43.4-1.79 1.14a2.4 2.4 0 0 0 0 1.72l.13.3-.26.28c-.2.22-.28.26-.35.2C1.82 3.75.32 5.26.26 5.54c-.1.47.38.87.82.68.07-.03.46-.4.87-.82.6-.61.73-.78.67-.85s-.01-.15.2-.36l.27-.27.3.15c.46.21 1.26.2 1.7-.01A2.04 2.04 0 0 0 6 1.3 1.8 1.8 0 0 0 4.23.2m0 .08c1.14 0 2.2 1.13 1.8 2.52A2 2 0 0 1 4.93 4c-.38.13-.97.13-1.35 0a2.2 2.2 0 0 1-1.11-1.13A1.9 1.9 0 0 1 2.93.86q.6-.58 1.3-.57m.02.5c-.74 0-1.4.6-1.4 1.42 0 .89.74 1.53 1.6 1.4 1.36-.2 1.6-2.16.34-2.7A1.4 1.4 0 0 0 4.25.8m0 .12c.66 0 1.26.54 1.26 1.3A1.27 1.27 0 0 1 3.6 3.34c-.85-.48-.85-1.75 0-2.25Q3.91.9 4.24.9M2.63 3.48l.17.17.18.18-.23.24c-.28.28-.27.28-.46.08l-.15-.16.24-.25zm-.78.48.33.34.33.33-.76.76C.93 6.23.8 6.3.51 6c-.29-.29-.22-.42.6-1.26z"/><path fill="#4b3d25" d="M1.08 6.22c.07-.03.46-.4.87-.82.6-.61.73-.78.67-.85s-.01-.15.2-.36l.27-.27.3.15c.46.21 1.26.2 1.7-.01A2.04 2.04 0 0 0 6 1.3 1.8 1.8 0 0 0 4.2.2c-.8 0-1.43.4-1.79 1.14a2.4 2.4 0 0 0 0 1.72l.13.3-.26.28c-.2.22-.28.26-.35.2C1.82 3.75.32 5.26.26 5.54c-.1.47.38.87.82.68M.5 6c-.29-.3-.22-.43.6-1.27l.75-.77.33.34.33.33-.76.76C.93 6.23.8 6.3.51 6m1.86-2.24.27-.28.17.17.18.18-.26.27-.27.27-.17-.17-.18-.17zm1.08.2a1.92 1.92 0 0 1-.54-3.1C3.65.1 4.81.1 5.56.86c.75.78.76 1.96.01 2.7q-.95.92-2.12.4m1.39-.47c.96-.45 1.05-1.86.14-2.47A1.5 1.5 0 0 0 3.74.9c-1.15.49-1.18 2.14-.05 2.62.31.13.84.12 1.15-.02m-1.25-.15c-.85-.48-.85-1.75 0-2.25.86-.51 1.92.1 1.92 1.12A1.27 1.27 0 0 1 3.6 3.34"/><path fill="#243b42" d="M1.08 6.22c.07-.03.46-.4.87-.82.57-.59.73-.78.68-.85s0-.15.17-.36l.24-.28.33.14c1.38.6 2.84-.34 2.84-1.83 0-1.18-.84-2.01-2-2.01h-.5l-.4.23a2.05 2.05 0 0 0-.9 2.63l.14.3-.26.28c-.2.22-.28.26-.35.2C1.82 3.75.32 5.26.26 5.54c-.1.47.38.87.82.68m-.58-.2a.5.5 0 0 1-.14-.36c0-.2.08-.3.74-.99l.75-.76.36.36.36.37-.75.76c-.66.66-.78.75-.96.75a.5.5 0 0 1-.36-.13m1.87-2.26.27-.28.17.17.18.18-.26.27-.27.27-.17-.17-.18-.17zm1.08.2a1.92 1.92 0 0 1-.54-3.1C3.65.1 4.81.1 5.56.86c.75.78.76 1.96.01 2.7q-.95.92-2.12.4m1.39-.47c.96-.45 1.05-1.86.14-2.47A1.5 1.5 0 0 0 3.74.9c-1.15.49-1.18 2.14-.05 2.62.31.13.84.12 1.15-.02m-1.25-.15c-.85-.48-.85-1.75 0-2.25.86-.51 1.92.1 1.92 1.12A1.27 1.27 0 0 1 3.6 3.34"/><path fill="#313130" d="M1.08 6.22c.07-.03.46-.4.87-.82.57-.59.73-.78.68-.85s0-.15.17-.36l.24-.28.33.14c1.38.6 2.84-.34 2.84-1.83 0-1.18-.84-2.01-2-2.01h-.5l-.4.23a2.05 2.05 0 0 0-.9 2.63l.14.3-.26.28c-.2.22-.28.26-.35.2C1.82 3.75.32 5.26.26 5.54c-.1.47.38.87.82.68m-.58-.2a.5.5 0 0 1-.14-.36c0-.2.08-.3.74-.99l.75-.76.36.36.36.37-.75.76c-.66.66-.78.75-.96.75a.5.5 0 0 1-.36-.13m1.87-2.26.27-.28.17.17.18.18-.26.27-.27.27-.17-.17-.18-.17zm1.01.16A1.93 1.93 0 0 1 2.9.85a1.9 1.9 0 0 1 2.68 0c.9.91.66 2.5-.46 3.08-.58.3-1.12.3-1.74 0m1.47-.44c.67-.34.95-1.15.64-1.84-.17-.39-.29-.5-.66-.68a1.3 1.3 0 0 0-1.57.27c-.62.63-.5 1.67.24 2.17.36.24.97.28 1.35.08M3.6 3.34c-.85-.48-.85-1.75 0-2.26 1.13-.67 2.42.64 1.76 1.78-.37.64-1.11.84-1.76.48"/><path fill="#030304" d="M1.14 6.16c.1-.06.5-.44.87-.82.6-.62.68-.72.6-.8-.07-.1-.04-.15.19-.39l.26-.27.36.17c.5.23 1.15.23 1.63 0A2.02 2.02 0 0 0 5.64.8C4.87 0 3.6 0 2.84.79a2.1 2.1 0 0 0-.4 2.26l.16.36-.27.27c-.24.23-.29.26-.38.18-.08-.07-.19.01-.82.65-.4.4-.76.8-.81.9-.26.5.35 1.07.82.75m-.66-.13a.5.5 0 0 1-.12-.36v-.24l.75-.77.75-.76.36.36.36.37-.76.76-.75.76H.84a.5.5 0 0 1-.36-.12m1.9-2.27.26-.28.17.18.18.17-.26.27-.27.27-.17-.17-.18-.17zm1.06.22A1.94 1.94 0 0 1 3.37.5c1.65-.85 3.4.92 2.55 2.6a1.86 1.86 0 0 1-2.48.88m1.43-.54q.73-.37.72-1.23c0-.58-.23-.96-.72-1.23-1.38-.73-2.7 1.1-1.6 2.22a1.3 1.3 0 0 0 1.6.24m-1.04.04c-.34-.1-.75-.53-.84-.89C2.66 1.34 4.06.38 5.05 1.2c.61.5.66 1.38.09 1.95q-.54.56-1.3.34"/></g></svg>