<svg xmlns="http://www.w3.org/2000/svg" width="223.24" height="223.24" viewBox="0 0 6.36 6.36"><g stroke-width=".03"><path fill="#feeecc" d="M.9 5.92c-.27-.13-.28-.2-.28-1.96V2.32l.13-.16.12-.17.66-.02.65-.02.24.27.23.27h.94c.51 0 .97.02 1.02.04.11.04.24.33.24.51q0 .15.17.22c.3.14.31.3.14 1.4-.13.84-.17 1.01-.29 1.14l-.13.14-1.86.02C1.85 5.96.96 5.95.9 5.92"/><path fill="#fee7b1" d="M.9 5.89a.5.5 0 0 1-.23-.24 27 27 0 0 1 0-3.36c.08-.24.34-.33.95-.33h.54l.25.27.26.26h1.91l.13.18c.08.1.14.26.14.34q0 .16.17.28c.26.19.28.26.22.78a6 6 0 0 1-.36 1.72l-.12.15-1.85.02c-1.5.01-1.87 0-2.01-.07"/><path fill="#fedda8" d="M.9 5.9C.65 5.75.63 5.63.63 3.95c0-1.75.02-1.83.36-1.94.1-.03.42-.06.69-.06h.49l.25.27.26.26h1.85l.14.12q.14.12.17.36.04.22.12.27c.18.07.33.28.33.45 0 .23-.26 1.8-.32 1.98-.11.28-.29.3-2.16.3A9 9 0 0 1 .9 5.9"/><path fill="#fed476" d="M.95 5.9C.64 5.8.62 5.7.62 3.98c0-1.61.03-1.82.24-1.91.05-.02.36-.04.7-.04h.62l.21.24.2.23h1.93l.14.12q.14.12.17.38.03.28.14.28c.06.01.16.1.22.18l.1.17-.14.98a8 8 0 0 1-.22 1.12.5.5 0 0 1-.28.2C4.41 6 1.19 6 .95 5.92"/><path fill="#febe54" d="m.77 5.76-.12-.15V2.32l.12-.15.13-.15h1.28l.21.24.2.23h1.95l.13.15q.13.14.13.35c0 .18.02.22.18.3.31.14.33.25.16 1.28-.17 1.1-.16 1.09-.3 1.23l-.11.11H.9z"/><path fill="#fec827" d="m.81 5.8-.14-.13v-3.4l.14-.13c.12-.1.21-.12.76-.12h.61l.21.24.2.23h.93c1.15 0 1.28.06 1.28.55 0 .17.02.2.17.25.32.1.33.24.15 1.37-.14.88-.17 1-.3 1.12l-.13.13H.95z"/><path fill="#feaf0f" d="m.81 5.8-.14-.13v-3.4l.14-.13c.12-.1.21-.12.76-.12h.61l.21.24.2.23h.93c1.16 0 1.28.05 1.28.57v.2l-1.57.01-1.57.02-.1.15q-.1.17-.25 1.15c-.22 1.37-.22 1.33-.3 1.33q-.06-.01-.2-.13z"/><path fill="#fe9f00" d="m.8 5.77-.13-.14V2.3l.13-.15.13-.14h1.25l.2.23.21.23.98.02.97.02.13.17c.07.1.13.24.13.34v.17H3.32c-.81 0-1.54.03-1.61.06-.2.08-.27.29-.46 1.52-.2 1.21-.21 1.26-.45 1"/></g><g fill="#0863cb"><path d="M1.8.3c-.32.1-.55.33-.69.58s-.19.5-.14.73a.2.2 0 0 0 .22.15.2.2 0 0 0 .14-.22c-.02-.1 0-.3.1-.48s.26-.34.49-.4c.22-.08.52-.07.92.13s.92.6 1.52 1.3a.2.2 0 0 0 .26 0 .2.2 0 0 0 .02-.26A6 6 0 0 0 3 .46 1.6 1.6 0 0 0 1.81.3"/><path fill-rule="evenodd" d="m5.2 2.77-1.76-.6L4.84.94z"/><path fill-rule="evenodd" d="M4.93.7 3.2 2.22l2.17.74-.04-.22zm-.16.47.28 1.41-1.36-.46z"/></g></svg>