<svg xmlns="http://www.w3.org/2000/svg" width="223.24" height="223.24" viewBox="0 0 6.36 6.36"><g stroke-width=".03"><path fill="#aaa" d="M4.18 1.26 3.35.42l.85.82.84.84c0 .04-.09-.04-.86-.82m-.17.17L3.41.8l.62.6.61.61c0 .04-.07-.03-.63-.6"/><path fill="none" d="M5.27 5.89q.01-.04.1-.1.14-.11.02.02-.11.14-.12.08M3.75 4.2l.14-.11q.01.01-.08.11l-.13.11q-.02-.01.07-.1"/><path fill="#333" d="m4.33 6.08-.3-.1A9 9 0 0 0 2.3 5.9H.7V.44h2.65l.85.84.84.84v1.8l.28.27c.54.51.53 1.17-.02 1.65q-.42.38-.97.24m.72-.3c.6-.41.6-1.16 0-1.56-.57-.38-1.38.08-1.38.78s.81 1.15 1.38.78m-.58-.44V5.1h-.23c-.19 0-.23-.02-.23-.11 0-.1.04-.12.23-.12h.23v-.22c0-.2.02-.23.11-.23.1 0 .12.04.12.23v.22h.23c.19 0 .23.02.23.12s-.04.11-.23.11H4.7v.23c0 .19-.02.23-.12.23s-.11-.04-.11-.23m-.88.18c-.23-.45-.15-.93.21-1.3.25-.24.63-.4.88-.34l.13.02V2.27h-1.6V.67H.92v5.01h2.75zm1.05-3.5-.6-.6-.6-.6v1.22h.6c.33 0 .6 0 .6-.02"/></g><g fill="#fff"><path d="M4.48 5.9a1 1 0 0 1-.76-.66c-.18-.58.32-1.18.93-1.14q.3.01.56.27c.22.22.32.5.27.76-.1.48-.56.83-1 .76m.21-.4.02-.2v-.17h.2q.19-.02.23-.04c.03-.03.03-.14 0-.18q-.01-.03-.23-.03h-.2V4.7c0-.22-.02-.28-.12-.29s-.12.03-.12.26v.2h-.21c-.23 0-.26.02-.25.13q-.02.12.28.11h.18v.2c0 .23.01.25.13.24q.09 0 .1-.05"/><path d="M.94 3.18V.68H3.2v1.6h1.6v1.6l-.14-.01c-.46-.07-1.05.36-1.18.86-.04.13-.04.42 0 .55.01.06.06.17.09.24l.06.14-1.35.01H.94z"/><path d="M3.44 1.45V.86l.56.57.56.58-.22.01-.56.02h-.34z"/></g></svg>