<svg xmlns="http://www.w3.org/2000/svg" width="223.24" height="223.24" viewBox="0 0 6.36 6.36"><path fill="#0f0" stroke="green" stroke-linecap="square" stroke-linejoin="bevel" stroke-width=".25" d="M139.34 140.43q0 .36-.11.63-.1.28-.3.48t-.46.36-.6.29v.8h-1.25v-1.19q.25-.06.46-.13.2-.08.43-.24.2-.14.32-.33.12-.18.12-.42 0-.36-.23-.5-.22-.16-.64-.16-.25 0-.58.11t-.58.29h-.14v-1.09q.22-.1.7-.2.47-.1.95-.1.88 0 1.4.39.5.38.5 1zm-1.37 3.99h-1.43v-.94h1.43z" transform="matrix(1.0346273 0 0 .96653163 -139.05627 -133.79422)"/></svg>