<svg xmlns="http://www.w3.org/2000/svg" viewBox="0 0 32 32"><path fill="none" stroke="#c2d86f" stroke-width="2" d="M18.9 20.8c0-5.5 11.8-8.8 5.2-15C18.4.3 11 1.7 6.8 8c-1.3 2-.6 3.8 1.1 5"/><path fill="#acbe71" d="M18.9 20.8c0-5.5 11.8-8.8 5.2-15C18.4.3 11 1.7 6.8 8c-1.3 2-.6 3.8 1.1 5-4.5.2-3.1-5-1.3-7C12-.6 25.6-.4 27.1 9.8q.4 2-1 3.3z"/><g fill="#d8f16d"><path d="m18.9 20.8-7.3.1-.6-.4q-.3-3.5 1.4-6.6a1.5.4-15.4 0 1 1-.5q2.4-1 3.9-3.2.3-.5-.3-.5h-.2a.7.3-58.9 0 0-.5.3q-3 3.9-8.3 3c-1.7-1.2-2.4-3-1.1-5C11 1.8 18.5.4 24 5.7c6.5 6.3-5.2 9.6-5.2 15.1"/><rect width="9.5" height="7.5" x="-4.7" y="-3.8" rx=".6" transform="translate(15 26)"/></g></svg>