<svg xmlns="http://www.w3.org/2000/svg" viewBox="0 0 32 32"><g fill="none" stroke-width="2"><path stroke="#85929a" d="m6.54 20.25 3.21 1.46"/><path stroke="#caafa4" d="m9.75 21.71 1.36 1.21a.69.59-39.8 0 0 .78.01L14 21.5"/><path stroke="#cbc5c3" d="m14 21.5-1.5 1.99a1.27.48 76.2 0 0-.11.89q.49 4.19 4.63 4.02a1.25.64 6.5 0 0 .85-.32q3.65-4.68-1.77-7.2a1.05.82-40.3 0 0-.82.03z"/><path stroke="#caafa4" d="M14 21.5q.8-1.41 2.21-1.18a.52.38 5.6 0 0 .6-.36q-.01-.42-.56-.5"/><path stroke="#85929a" d="M16.25 19.46q5.73-1.21.27-.61c-2.43.27-3.16-.7-5.59.54"/><path stroke="#caafa4" d="M10.93 19.39 9.46 21"/><path stroke="#85929a" d="m9.46 21-2.67-1.5"/><path stroke="#c2bdbd" d="M8.05 4.67C3.28 5.72.74 12.2 4.49 15.11q2.26 1.75 1.83-1.08Q5.63 9.46 8.46 6"/><path stroke="#d1b6b0" d="M8.46 6q-3.11 5.64-.9 11.77.37 1.02 1.06.19.99-1.21 2.63-1.5"/><path stroke="#caafa4" d="m11.25 16.46 6.04-.21"/><path stroke="#d1b6b0" d="M17.29 16.25q3.66-.37 6.33 1.91a.4.39 34.9 0 0 .6-.1q.67-1.25 1.78-2.1"/><path stroke="#c2bdbd" d="M26 15.96c4.85-3.51 3.71-10.06-2.43-11.26"/><path stroke="#d1b6b0" d="M23.57 4.7Q15.92.24 8.05 4.67"/><path stroke="#e5d1ce" d="M23.57 4.7c2.38 4.31 2.36 5.74 2.43 11.26"/><path stroke="#edc3b4" d="M17.29 16.25q1.11-.66 1-2"/><path stroke="#a8a6aa" d="M18.29 14.25q6.02 1.52 5-4.5"/><path stroke="#e5d1ce" d="M23.29 9.75c-1.24-2.8-4.06-3.24-6.03-1.01q-.7.79-1.47 1.51"/><path stroke="#a8a6aa" d="m15.79 10.25-.29-.21"/><path stroke="#e5d1ce" d="M15.5 10.04Q12.17 4.58 8.71 10"/><path stroke="#a8a6aa" d="M8.71 10q-.98 3.31 2.29 4.54"/><path stroke="#edc3b4" d="m11 14.54.25 1.92"/><path stroke="#e5d1ce" d="M8.46 6q1.21-1.74-.41-1.33"/><path stroke="#99adb8" d="M23.29 9.75q-.08 5.97-5.83 3.75"/><path stroke="#decac2" d="m17.46 13.5-1.67-2"/><path stroke="#99adb8" d="M15.79 11.5v-1.25"/><path stroke="#a19f9e" d="m18.29 14.25-.83-.75"/><path stroke="#99adb8" d="M15.5 10.04c-.8 6.06-7.58 4.66-6.79-.04"/><path stroke="#a19f9e" d="M15.79 11.5q-1.17 3.43-4.79 3.04"/><path stroke="#99adb8" d="M21.35 11.21c.27-1.12-2.32-1.28-2.58-.12a.5.32 1.1 0 0 .55.37l1.43-.09a.65.15-2.2 0 0 .6-.16m-7.69-.05c.06-.68-2.14-.98-2.66-.2a.33.19 12.9 0 0 .33.31l1.68.14a.63.3 4.4 0 0 .65-.25"/><path stroke="#a19f9e" d="M16.25 19.46q-2.62-.74-5.32-.07m-1.18 2.32L9.46 21"/></g><path fill="#ada29f" d="M16.44 32h-.75q-2.77-2.68-5.16-7.56-.96-1.95-3.54-3.04a1.01.57 15.1 0 1-.63-.62q-.03-.29.18-.53l3.21 1.46 1.36 1.21a.69.59-39.8 0 0 .78.01L14 21.5l-1.5 1.99a1.27.48 76.2 0 0-.11.89q.49 4.19 4.63 4.02a1.25.64 6.5 0 0 .85-.32q3.65-4.68-1.77-7.2a1.05.82-40.3 0 0-.82.03L14 21.5q.8-1.41 2.21-1.18a.52.38 5.6 0 0 .6-.36q-.01-.42-.56-.5 5.73-1.21.27-.61c-2.43.27-3.16-.7-5.59.54L9.46 21l-2.67-1.5q-1.4-1.77-3.55-2.91a1.39 1.21 7.4 0 1-.62-.7c-2.05-5.83-1.49-10.54 4.84-13Q19.25-1.68 29.11 5.7a1.65.8 25.7 0 1 .64.8q1.21 4.64-.21 9.22a1.12.01-39.9 0 1-.85.72l-2.86 2.39a1 .71 68.4 0 0-.22.89c.35 1.63-2.67 2.86-3.77 3.97a1.98 1.51 81 0 0-.46.85q-1.15 4.58-4.94 7.46M8.05 4.67C3.28 5.72.74 12.2 4.49 15.11q2.26 1.75 1.83-1.08Q5.63 9.46 8.46 6q-3.11 5.64-.9 11.77.37 1.02 1.06.19.99-1.21 2.63-1.5l6.04-.21q3.66-.37 6.33 1.91a.4.39 34.9 0 0 .6-.1q.67-1.25 1.78-2.1c4.85-3.51 3.71-10.06-2.43-11.26Q15.92.24 8.05 4.67"/><path fill="#f4cac0" d="M23.57 4.7c2.38 4.31 2.36 5.74 2.43 11.26q-1.11.85-1.78 2.1a.4.39 34.9 0 1-.6.1q-2.67-2.28-6.33-1.91 1.11-.66 1-2 6.02 1.52 5-4.5c-1.24-2.8-4.06-3.24-6.03-1.01q-.7.79-1.47 1.51l-.29-.21Q12.17 4.58 8.71 10q-.98 3.31 2.29 4.54l.25 1.92q-1.64.29-2.63 1.5-.69.83-1.06-.19-2.21-6.13.9-11.77 1.21-1.74-.41-1.33 7.87-4.43 15.52.03"/><path fill="#d6d8db" d="M8.05 4.67q1.62-.41.41 1.33-2.83 3.46-2.14 8.03.43 2.83-1.83 1.08C.74 12.2 3.28 5.72 8.05 4.67m15.52.03c6.14 1.2 7.28 7.75 2.43 11.26-.07-5.52-.05-6.95-2.43-11.26m-.28 5.05q-.08 5.97-5.83 3.75l-1.67-2v-1.25q.77-.72 1.47-1.51c1.97-2.23 4.79-1.79 6.03 1.01m-1.94 1.46c.27-1.12-2.32-1.28-2.58-.12a.5.32 1.1 0 0 .55.37l1.43-.09a.65.15-2.2 0 0 .6-.16m-5.85-1.17c-.8 6.06-7.58 4.66-6.79-.04q3.46-5.42 6.79.04m-1.84 1.12c.06-.68-2.14-.98-2.66-.2a.33.19 12.9 0 0 .33.31l1.68.14a.63.3 4.4 0 0 .65-.25"/><path fill="#5c8194" d="M23.29 9.75q1.02 6.02-5 4.5l-.83-.75q5.75 2.22 5.83-3.75M8.71 10c-.79 4.7 5.99 6.1 6.79.04l.29.21v1.25q-1.17 3.43-4.79 3.04Q7.73 13.31 8.71 10"/><path fill="#5c8194" d="M18.77 11.09c.26-1.16 2.85-1 2.58.12a.65.15-2.2 0 1-.6.16l-1.43.09a.5.32 1.1 0 1-.55-.37M11 10.96c.52-.78 2.72-.48 2.66.2a.63.3 4.4 0 1-.65.25l-1.68-.14a.33.19 12.9 0 1-.33-.31"/><path fill="#e6bca8" d="m15.79 11.5 1.67 2 .83.75q.11 1.34-1 2l-6.04.21-.25-1.92q3.62.39 4.79-3.04"/><path fill="#5c8194" d="M16.25 19.46q-2.62-.74-5.32-.07c2.43-1.24 3.16-.27 5.59-.54q5.46-.6-.27.61"/><path fill="#e6bca8" d="M16.25 19.46q.55.08.56.5a.52.38 5.6 0 1-.6.36Q14.8 20.09 14 21.5l-2.11 1.43a.69.59-39.8 0 1-.78-.01l-1.36-1.21-.29-.71 1.47-1.61q2.7-.67 5.32.07"/><path fill="#5c8194" d="M6.79 19.5 9.46 21l.29.71-3.21-1.46z"/><path fill="#e8e7e7" d="m14 21.5 1.28-.59a1.05.82-40.3 0 1 .82-.03q5.42 2.52 1.77 7.2a1.25.64 6.5 0 1-.85.32q-4.14.17-4.63-4.02a1.27.48 76.2 0 1 .11-.89z"/></svg>