<svg height="4096" viewBox="0 0 4096 4096" width="4096" xmlns="http://www.w3.org/2000/svg"><path d="m931.0496 3807.6003c-332.0783-86.995-576.13773-341.5905-651.47598-679.6003-21.50538-96.4851-24.26181-253.8498-19.89848-1136l5.06494-1024 36.95176-99.5645c97.55219-262.84908 303.89458-469.19147 566.74366-566.74366l99.5645-36.95176 1024-5.06494c1140.6283-5.64183 1154.1254-4.64543 1364.0573 100.69915 198.4048 99.56032 370.9769 306.00704 440.4953 526.96131 35.089 111.52536 35.4474 123.2597 35.4474 1160.6644 0 1037.4046-.3584 1049.139-35.4474 1160.6645-93.2344 296.332-332.5137 521.5755-636.7313 599.3813-118.4976 30.3065-176.1669 31.9088-1118.3807 31.0732-925.6755-.8208-1001.4181-2.9708-1110.391-31.5187zm2239.5936-379.7552c123.2667-60.7005 207.8974-147.463 267.1941-273.9249l42.1627-89.9202v-1016-1016l-42.1627-89.92018c-59.3082-126.48646-143.9251-213.22568-267.2227-273.92486l-105.9418-52.15496h-1016.6728-1016.6729l-105.94174 52.15496c-123.29755 60.69918-207.91451 147.4384-267.22272 273.92486l-42.16264 89.92018v1016 1016l42.16264 89.9202c77.09362 164.4174 223.02282 284.6116 385.39766 317.4318 37.6418 7.6085 507.8039 12.6667 1044.8047 11.2408l976.3649-2.5928zm-1918.5421-324.3062c-43.178-17.3594-99.9583-105.604-100.0413-155.4783-.1043-62.6552 734.2052-1879.986 777.4346-1924.0606 31.3915-32.00536 55.0768-40 118.5056-40s87.1141 7.99464 118.5056 40c43.2294 44.0746 777.5389 1861.4054 777.4346 1924.0606-.08 52.5829-57.6872 138.354-104.9892 156.3383-141.1659 53.6712-203.6145-3.0362-317.5971-288.3989l-86.2771-216h-387.0768-387.0768l-86.2771 216c-96.3768 241.2854-145.5691 304.7365-234.8985 302.9858-28.4612-.5584-67.9021-7.509-87.6465-15.4469zm918.3443-1167.3597c-62.9449-158.3014-118.0454-287.8206-122.4454-287.8206s-59.5005 129.5192-122.4454 287.8206l-114.4453 287.8208h236.8907 236.8907z" stroke-width="16"/></svg>