<svg xmlns="http://www.w3.org/2000/svg" width="4096" height="4096" viewBox="0 0 4096 4096"><path d="M1810 3135q-15-6-24-18c-7-10-8-71-9-851-1-684-3-842-8-851-3-6-13-14-22-19-15-8-27-9-325-9-337 0-333 1-352-25-9-13-9-22-9-183 0-185 0-183 28-199 16-9 34-9 953-9 920 0 938 0 954 9 28 16 28 14 28 199 0 161 0 170-9 183-19 26-15 25-353 25-342 0-332-1-348 27-6 12-7 111-7 846 0 916 2 854-30 872-16 9-24 9-235 9-170 0-221-1-232-6"/><path fill="none" stroke="#000" stroke-linejoin="round" stroke-width="85.1" d="M329 291h3438v3514H329z"/></svg>