<svg xmlns="http://www.w3.org/2000/svg" width="527" height="527" viewBox="0 0 421.6 421.6"><path fill="#336791" d="M397 259.2c-50.3 10.4-53.8-6.7-53.8-6.7 53.1-78.7 75.3-178.7 56.2-203.1C347-17.4 256.7 14.2 255.2 15l-.5.1q-14.9-3.1-33.5-3.5c-22.8-.4-40 6-53.1 15.9 0 0-161.3-66.4-153.8 83.6C15.9 143 60 352.5 112.7 289.2c19.2-23.1 37.8-42.7 37.8-42.7a49 49 0 0 0 32 8.2l.8-.8q-.4 4.2.4 9c-13.6 15.2-9.6 17.8-36.7 23.4-27.4 5.7-11.3 15.7-.8 18.4 12.8 3.2 42.3 7.7 62.2-20.2l-.8 3.2c5.3 4.2 9 27.6 8.4 48.9s-1 35.8 3.2 47.2 8.3 37 44 29.4c29.8-6.4 45.2-23 47.4-50.5 1.5-19.6 5-16.7 5.2-34.3l2.7-8.3c3.2-26.6.5-35.2 18.9-31.2l4.4.4c13.5.6 31.2-2.1 41.6-7 22.3-10.3 35.6-27.7 13.6-23.1"/><g stroke="#fff"><path fill="none" stroke-linecap="round" stroke-linejoin="round" stroke-width="12.5" d="M210.6 274.4c-1.4 49.5.3 99.3 5.2 111.5 4.8 12 15.2 35.6 50.8 28 29.8-6.4 40.6-18.8 45.4-46a1965 1965 0 0 0 11-87.3M167.8 26.4S6.4-39.6 14 110.4c1.6 32 45.8 241.5 98.4 178.2a874 874 0 0 1 36.7-41.3M255 14.4c-5.6 1.7 89.8-35 144 34.3 19.2 24.5-3 124.5-56.1 203.2"/><path fill="none" stroke-linecap="round" stroke-linejoin="bevel" stroke-width="12.5" d="M342.9 252s3.5 17 53.7 6.6c22-4.6 8.8 12.7-13.5 23.1-18.4 8.5-59.5 10.7-60.2-1-1.7-30.4 21.7-21.2 20-28.8-1.5-6.8-12-13.5-18.9-30.3-6-14.6-82.7-126.7 21.3-110 3.8-.9-27.1-99-124.5-100.6-97.3-1.6-94.1 119.7-94.1 119.7"/><path fill="none" stroke-linecap="round" stroke-linejoin="round" stroke-width="12.5" d="M183.3 262.3c-13.5 15.2-9.5 17.8-36.7 23.4-27.4 5.7-11.3 15.7-.8 18.4 12.8 3.1 42.3 7.7 62.3-20.3 6-8.5 0-22-8.4-25.5-4-1.7-9.4-3.8-16.4 4"/><path fill="none" stroke-linecap="round" stroke-linejoin="round" stroke-width="12.5" d="M182.4 262c-1.3-8.9 3-19.5 7.6-31.9 6.9-18.6 22.9-37.2 10-96.3-9.4-44-73.3-9.1-73.3-3.1s2.9 30.2-1 58.5c-5.2 36.8 23.4 68 56.4 64.9"/><path fill="#fff" stroke-width="4.2" d="M167.3 129.8c-.3 2 3.7 7.4 9 8.2s9.6-3.6 10-5.6c.2-2-3.8-4.3-9-5s-9.8.3-10 2.4z"/><path fill="#fff" stroke-width="2.1" d="M326.6 125.6c.2 2-3.8 7.5-9 8.2s-9.7-3.5-10-5.5 3.7-4.3 9-5 9.7.3 10 2.3z"/><path fill="none" stroke-linecap="round" stroke-linejoin="round" stroke-width="12.5" d="M345.3 111.5c.8 16-3.5 26.9-4 43.9-.8 24.7 11.8 53-7.2 81.4"/></g></svg>