<svg height="527" viewBox="0 0 421.6 421.59999" width="527" xmlns="http://www.w3.org/2000/svg"><g transform="translate(-7.047635)"><path d="m404.01517 259.19773c-50.26545 10.36846-53.72093-6.65017-53.72093-6.65017 53.0724-78.75073 75.25827-178.713041 56.11219-203.17825-52.23202-66.73647-142.64827-35.174422-144.15717-34.355018l-.48565.08694c-9.93077-2.061501-21.04469-3.289608-33.53561-3.493459-22.74446-.372729-39.99691 5.962664-53.08839 15.890444 0 0-161.293713-66.446681-153.792168 83.569223 1.595839 31.9148 45.742736 241.4814 98.399448 178.18243 19.246-23.14617 37.84148-42.71694 37.84148-42.71694 9.23628 6.13554 20.29324 9.26527 31.88481 8.14108l.90035-.76444c-.2798 2.87391-.15189 5.68487.36074 9.01245-13.56514 15.15598-9.57904 17.81704-36.69632 23.39898-27.43905 5.65489-11.31977 15.72257-.79542 18.35365 12.75872 3.19068 42.27626 7.7104 62.22075-20.2093l-.79542 3.18568c5.31514 4.25691 9.04742 27.69087 8.42188 48.93342-.62555 21.24355-1.04324 35.82795 3.14471 47.21966 4.18795 11.39172 8.36192 37.02308 44.01 29.38463 29.78734-6.38335 45.22311-22.92532 47.37055-50.51826 1.52389-19.61673 4.97238-16.71684 5.19023-34.25509l2.76598-8.30296c3.18968-26.59166.50664-35.17043 18.85829-31.18033l4.45976.39172c13.50717.61455 31.18532-2.17242 41.56077-6.99492 22.34176-10.36846 35.59212-27.67987 13.56314-23.13117z" fill="#336791"/><g stroke="#fff"><path d="m217.62171 274.44064c-1.38399 49.48002.34775 99.30479 5.18923 111.41398 4.84448 12.1092 15.21194 35.66207 50.86301 28.02462 29.78434-6.38535 40.62146-18.74237 45.32404-46.01753 3.46349-20.06741 10.14063-75.79888 10.99701-87.21758" fill="none" stroke-linecap="round" stroke-linejoin="round" stroke-width="12.456042"/><path d="m174.89079 26.393018s-161.403632-65.968029-153.900089 84.047882c1.59584 31.91479 45.745734 241.48839 98.401439 178.18642 19.24201-23.14916 36.64436-41.30496 36.64436-41.30496" fill="none" stroke-linecap="round" stroke-linejoin="round" stroke-width="12.456042"/><path d="m262.07239 14.352773c-5.58694 1.751727 89.78271-34.863647 143.9823 34.391991 19.14507 24.466208-3.04079 124.428516-56.1122 203.181246" fill="none" stroke-linecap="round" stroke-linejoin="round" stroke-width="12.456042"/><path d="m349.94149 251.92601s3.45849 17.02362 53.72493 6.64817c22.02399-4.54869 8.76963 12.76472-13.56713 23.13817-18.33167 8.50782-59.43078 10.68823-60.10229-1.06822-1.72775-30.33294 21.63127-21.11764 19.94549-28.71812-1.52389-6.84502-11.97029-13.56313-18.88027-30.31595-6.03261-14.62237-82.73583-126.756826 21.27153-110.10294 3.81023-.78842-27.12627-98.930055-124.46249-100.525895-97.31423-1.5958394-94.12156 119.674975-94.12156 119.674975" fill="none" stroke-linecap="round" stroke-linejoin="bevel" stroke-width="12.456042"/><path d="m190.37952 262.29947c-13.56713 15.15498-9.57703 17.81604-36.69631 23.39998-27.43905 5.65589-11.31777 15.72157-.79642 18.35166 12.75872 3.19268 42.27625 7.71239 62.22075-20.2143 6.07358-8.50282-.036-22.06995-8.37891-25.52844-4.03106-1.66978-9.42114-3.76226-16.34911 3.9911z" fill="none" stroke-linecap="round" stroke-linejoin="round" stroke-width="12.456042"/><path d="m189.49117 262.03466c-1.36701-8.91052 2.92787-19.51381 7.53052-31.91879 6.91697-18.61246 22.87637-37.22793 10.10965-96.26899-9.51608-43.997007-73.34266-9.15634-73.38264-3.19068-.039 5.96366 2.88691 30.23801-1.06622 58.50545-5.15825 36.88618 23.47093 68.0825 56.43796 64.89082" fill="none" stroke-linecap="round" stroke-linejoin="round" stroke-width="12.456042"/><path d="m174.30421 129.76185c-.28779 2.03752 3.73029 7.47456 8.96948 8.20104 5.2302.72947 9.70694-3.51945 9.99074-5.55496.28379-2.03752-3.72929-4.28189-8.97048-5.01136-5.2332-.73047-9.71194.33276-9.98874 2.36528z" fill="#fff" stroke-width="4.151981"/><path d="m333.61237 125.60787c.28379 2.03752-3.72929 7.47456-8.96948 8.20104-5.2342.72947-9.71094-3.51944-9.99773-5.55496-.2768-2.03752 3.73728-4.28189 8.97247-5.01136 5.2352-.72947 9.71094.33276 9.99474 2.36628z" fill="#fff" stroke-width="2.07599"/><path d="m352.33375 111.50712c.86238 15.98238-3.44249 26.86847-3.9851 43.88209-.80342 24.73002 11.79043 53.03544-7.18577 81.37583" fill="none" stroke-linecap="round" stroke-linejoin="round" stroke-width="12.456042"/></g></g></svg>