<svg xmlns="http://www.w3.org/2000/svg" viewBox="0 0 32 32"><g fill="none" stroke-width="2"><path stroke="#6f7e34" d="m12 7-.7.3"/><path stroke="#c4b276" d="M11.3 7.3q-.8-.5-1-1.3a1.3.8-41 0 1 .3-1c1-1.2-1-3.1-1.8-1.7a1.3.7 61.8 0 0 0 1q.5 1.4-.3 2.7"/><path stroke="#8c7a3a" d="m8.5 7-.7-1.5"/><path stroke="#2c671e" d="m28.5 8 1 1"/><path stroke="#67a668" d="M29.5 9q-4.9 1.2-4.1-3.4a1 .8-69.5 0 0-.3-.8c-1.5-1.2-1.4 2.1-1.4 3.2a.7.5 90 0 1-.4.7l-5.8.4a.5.5-10.6 0 0-.5.6q1 2.8-1.2 4.4a.8.7 46.9 0 1-.9-.2q-1.7-1.5-3.6-.4a1.3.6 84.4 0 0-.4 1q0 5.4 4 1.9 1.7-1.6 2.3 1.4.4 2.1.2 4.3a1 1-85.9 0 0 .6.7l3.7.2a1 .8 72.9 0 1 .7.4q1 1.8 2.7-.3"/><path stroke="#2c671e" d="m25.2 23.1-.2 1.1"/><path stroke="#7a9455" d="M15.9 23.8q-2.9-2-5.6-.1"/><path stroke="#6f7e34" d="m10 24.5-.8-1.2"/><path stroke="#8c7a3a" d="M1.7 21.3 1 22.5"/><path stroke="#978f5b" d="M3.3 6Q4.6 7.5 7 7q1-.2.7-1"/><path stroke="#90a46b" d="M11.3 7.3c-.4 1.4 5-1.4 4.4 3.2 0 .4.1 4.3-1.2 1q-.8-1.8-3 0c-4.3 3.3-1.8 9.8 3.6 7.2a.4.3-15.5 0 1 .5.2c.4 5.6-4.9 1.2-6.4 4.4"/><path stroke="#c4b276" d="M9.2 23.3q-.3.2-.7.2a1 .7 63.3 0 1-.8-.4c-1-1.5-3.5-1-5.1-.9l-.7-.4-.2-.5"/><path stroke="#ad9f71" d="M1.7 21.3v-13a.7.7-79 0 1 1-.7Q5.8 8.8 8.5 7"/><path stroke="#2c671e" d="M28.8 13.2v-1"/><path stroke="#579d5d" d="M29.5 9q2 2.2-.7 3.3"/><path stroke="#67a668" d="M28.8 12.3C24.4 10.4 22 18 27 20.6a1 1-49.8 0 0 .9-.1q1.8-1.4 2 .7"/><path stroke="#579d5d" d="M30 21.3c.6 2.6-3.2 1.6-4.9 1.8"/><path stroke="#67a668" d="M26.3 14c-2.2 1.1-2 5-.3 4"/><path stroke="#2c671e" d="m31 20-1 1.3"/></g><path fill="#a38d3f" d="m12 7-.7.3q-.8-.5-1-1.3a1.3.8-41 0 1 .3-1c1-1.2-1-3.1-1.8-1.7a1.3.7 61.8 0 0 0 1q.5 1.4-.3 2.7l-.7-1.5Q6.5 1.2 11.2 2l.6.5z"/><path fill="#e4d7ad" d="M11.3 7.3c-.4 1.4 5-1.4 4.4 3.2 0 .4.1 4.3-1.2 1q-.8-1.8-3 0c-4.3 3.3-1.8 9.8 3.6 7.2a.4.3-15.5 0 1 .5.2c.4 5.6-4.9 1.2-6.4 4.4q-.3.2-.7.2a1 .7 63.3 0 1-.8-.4c-1-1.5-3.5-1-5.1-.9l-.7-.4-.2-.5v-13a.7.7-79 0 1 1-.7Q5.8 8.8 8.5 7q.8-1.3.3-2.8a1.3.7 61.8 0 1 0-.9c.9-1.4 2.8.5 1.8 1.8a1.3.8-41 0 0-.3.9q.2.8 1 1.3"/><path fill="#3c7029" d="m28.5 8 1 1q-4.9 1.2-4.1-3.4a1 .8-69.5 0 0-.3-.9C23.6 3.6 23.7 7 23.7 8a.7.5 90 0 1-.4.7l-5.8.4a.5.5-10.6 0 0-.5.6q1 2.8-1.2 4.3a.8.7 46.9 0 1-.9-.1q-1.7-1.5-3.6-.4a1.3.6 84.4 0 0-.4 1q0 5.4 4 1.8 1.7-1.5 2.3 1.5.4 2.1.2 4.3a1 1-85.9 0 0 .6.7l3.7.2a1 .8 72.9 0 1 .7.4q1 1.8 2.7-.3v1.1l-.5 4a.8.7-89.8 0 1-.6.8q-5 .5-2-3.6 1-1.3-.7-1.4l-5.4-.2q-2.8-2-5.6-.1l-.3.8-.8-1.3c1.5-3.1 6.8 1.3 6.4-4.3a.4.3-15.5 0 0-.5-.2c-5.4 2.6-7.8-4-3.6-7.2q2.2-1.8 3 0c1.3 3.2 1.2-.6 1.2-1 .6-4.6-4.8-1.8-4.5-3.2L12 7h3.6a2 1.2-16.1 0 1 1 .2q2.5 1.7 5.6.6a.8.4-18.8 0 0 .6-.6l-.6-1.8a1.2.5 62.4 0 1-.1-.9C23.5 2 28.3 3.1 26.4 6a1.8.9-42.5 0 0-.4.9q0 1.8 2.5 1.1"/><path fill="#91dca6" d="M29.5 9q2 2.2-.7 3.3C24.4 10.4 22 18 27 20.6a1 1-49.8 0 0 .9-.1q1.8-1.4 2 .7c.6 2.7-3.2 1.8-4.9 2q-1.6 2-2.7.2a1 .8 72.9 0 0-.7-.4l-3.7-.2a1 1-85.9 0 1-.6-.7q.2-2.2-.2-4.3-.6-3-2.3-1.5-4 3.6-4-1.8a1.3.6 84.4 0 1 .4-1q1.9-1.1 3.6.4a.8.7 46.9 0 0 1 .2Q18 12.5 17 9.7a.5.5-10.6 0 1 .5-.6l5.8-.4a.7.5 90 0 0 .4-.7c0-1-.1-4.4 1.4-3.2a1 .8-69.5 0 1 .3.8q-.8 4.6 4.1 3.4"/><path fill="#756635" d="M7.8 5.5 8.5 7q-2.7 1.8-5.8.6a.7.7-79 0 0-1 .6v13L1 22.6V7q0-1.7 2.3-1Q4.6 7.5 7 7q1-.2.7-1z"/><path fill="#b8b781" d="M3.3 6h4.4q.2.8-.7 1-2.4.5-3.7-1"/><path fill="#1c5e13" d="M28.5 8c3.6-1 2.6 4 2.2 6.2q0 .6-.5.3l-1.4-1.3v-1q2.6-1 .7-3.2z"/><path fill="#3c7029" d="M28.8 12.3v1q-1.5-.6-2.6.7c-2 1.1-1.9 5-.2 4v.5l.5.5q1.6.1 3-.8a1.3 1-52.1 0 1 .9-.2q1 .2.6 2l-1 1.2q-.2-2.1-2-.7a1 1-49.8 0 1-.9 0c-5-2.4-2.7-10 1.6-8.2"/><path fill="#91dca6" d="m26.3 14-.3 4c-1.7 1-1.9-2.8.3-4"/><path fill="#1c5e13" d="M31 20c1.7 5.4-3.6 3.7-6 4.3l.1-1.2c1.7-.2 5.5.8 5-1.9z"/><path fill="#a38d3f" d="m1.7 21.3.2.5.7.4c1.6-.2 4-.6 5.1.9a1 .7 63.3 0 0 .8.4q.4 0 .7-.3l.8 1.3c3.4 1.8-1.2 3.8-3.3 3.5a.9.5 4 0 1-.7-.5q-.2-1.7 1-2.8.8-.6-.2-.7c-1.4 0-6.5.8-5.8-1.5z"/><path fill="#b8b781" d="M15.9 23.8q-2.7.6-5.6-.1 2.7-1.8 5.6 0"/></svg>