<svg xmlns="http://www.w3.org/2000/svg" width="223.24" height="223.24" viewBox="0 0 6.36 6.36"><linearGradient id="a" x1="139.66" x2="144.39" y1="136.52" y2="136.52" gradientTransform="translate(.79 -33.78)" gradientUnits="userSpaceOnUse"><stop offset="0" stop-color="#fdfd8d"/><stop offset="1" stop-color="#fefdd2"/></linearGradient><path fill="url(#a)" stroke="#e5cc26" stroke-linecap="round" stroke-linejoin="round" stroke-width=".15" d="m140.03 135.82.2-.29h1.55l.4-.63h2.2l.23.31v3.66h-.69l-.25-.52-.27.52-1.68-.01-.3-.52-.23.53h-1.16z" transform="translate(-139.06 -133.8)"/><path fill="#666" d="M1.55 2.36h.38v.37h-.38zm0 1.27h.38V4h-.38zm0-.63h.38v.37h-.38zm.97-.64h2.64v.24H2.52zm0 1.27h2.64v.24H2.52zm0-.63h2.64v.24H2.52z"/></svg>