<svg xmlns="http://www.w3.org/2000/svg" width="223.24" height="223.24" viewBox="0 0 6.36 6.36"><linearGradient id="a" x1="139.66" x2="144.39" y1="136.52" y2="136.52" gradientTransform="translate(.79 -33.78)" gradientUnits="userSpaceOnUse"><stop offset="0" stop-color="#fdfd8d"/><stop offset="1" stop-color="#fefdd2"/></linearGradient><path fill="url(#a)" stroke="#e5cc26" stroke-linecap="round" stroke-linejoin="round" stroke-width=".15" d="m140.03 135.82.2-.29h1.55l.4-.63h2.2l.23.31v3.66h-.69l-.25-.52-.27.52-1.68-.01-.3-.52-.23.53h-1.16z" transform="translate(-139.74 -134.42)"/><path fill="#666" d="M.86 1.73h.39v.37H.86zM.86 3h.39v.38H.86zm0-.63h.39v.37H.86zm.97-.64h2.65v.24H1.83zm0 1.27h2.65v.24H1.83zm0-.63h2.65v.24H1.83z"/><path fill="url(#a)" stroke="#e5cc26" stroke-linecap="round" stroke-linejoin="round" stroke-width=".15" d="m140.03 135.82.2-.29h1.55l.4-.63h2.2l.23.31v3.66h-.69l-.25-.52-.27.52-1.68-.01-.3-.52-.23.53h-1.16z" transform="translate(-139.26 -133.88)"/><path fill="#666" d="M1.35 2.27h.38v.38h-.38zm0 1.27h.38v.38h-.38zm0-.64h.38v.38h-.38zm.97-.63h2.64v.24H2.32zm0 1.27h2.64v.24H2.32zm0-.64h2.64v.25H2.32z"/><path fill="url(#a)" stroke="#e5cc26" stroke-linecap="round" stroke-linejoin="round" stroke-width=".15" d="m140.03 135.82.2-.29h1.55l.4-.63h2.2l.23.31v3.66h-.69l-.25-.52-.27.52-1.68-.01-.3-.52-.23.53h-1.16z" transform="translate(-138.62 -133.37)"/><path fill="#666" d="M1.98 2.79h.39v.37h-.39zm0 1.27h.39v.37h-.39zm0-.64h.39v.38h-.39zm.97-.63H5.6v.24H2.95zm0 1.27H5.6v.24H2.95zm0-.64H5.6v.24H2.95z"/></svg>