<svg xmlns="http://www.w3.org/2000/svg" width="223.24" height="223.24" viewBox="0 0 6.36 6.36"><linearGradient id="a" x1="140.36" x2="142.65" y1="136.92" y2="136.92" gradientTransform="translate(-34.23 -17.72)" gradientUnits="userSpaceOnUse"><stop offset="0" stop-color="#a6c656"/><stop offset="1" stop-color="#bad389"/></linearGradient><g stroke-linecap="round" stroke-linejoin="round"><path fill="maroon" d="M5.96 5.61q0 .23-.28.38t-.76.15q-.28 0-.49-.04-.2-.03-.38-.08v-.39h.06q.18.1.4.16t.42.05h.14q.09 0 .14-.02.07-.02.11-.05t.04-.09-.06-.09-.18-.06l-.27-.03-.26-.05q-.28-.07-.4-.18-.13-.11-.13-.28 0-.22.28-.36t.72-.14q.22 0 .43.03.22.03.38.08v.36H5.8q-.14-.07-.33-.12-.2-.06-.4-.06l-.15.01q-.07 0-.13.03-.06.01-.1.05-.05.03-.05.07 0 .06.07.1.07.03.26.06l.23.03.25.05q.25.06.37.16.13.1.13.27"/><path fill="url(#a)" stroke="#619f1e" stroke-width=".25" d="m140.4 134.78.03 4.24 2.56-2.06z" transform="translate(-139.06 -133.8)"/><path fill="navy" d="M6.13 1.08q0 .08-.06.16t-.16.13q-.15.07-.33.11t-.44.04h-.4v.4h-.63V.68h1.04q.23 0 .4.03.15.01.28.05.15.05.22.13t.08.18m-.65 0q0-.04-.06-.08T5.3.95L5.1.92h-.35v.37h.17l.27-.01q.1-.01.17-.04l.1-.06q.02-.04.02-.1"/><path fill="green" d="m5.8 3.79-.32.07q-.21.03-.42.03-.47 0-.74-.19t-.27-.52q0-.32.27-.51.27-.2.76-.2.18 0 .35.03t.37.1v.31h-.05l-.1-.05-.14-.06-.17-.05-.2-.02q-.13 0-.23.02t-.2.09q-.07.05-.12.14-.04.08-.04.2 0 .22.16.34.17.12.49.12h.12v-.27h-.37v-.26h.86z"/></g></svg>