<svg height="59.065338mm" viewBox="0 0 6.3639856 6.3639856" width="59.065338mm" xmlns="http://www.w3.org/2000/svg"><g transform="translate(-139.05627 -133.79422)"><g transform="matrix(.34575468 0 0 .32813123 139.47223 135.31964)"><path d="m13.32 5.5a.87.87 0 0 0 .18-.5c0-1.1-2.5-2-5.5-2s-5.5.9-5.5 2a.87.87 0 0 0 .18.5.78.78 0 0 0 0 1 .78.78 0 0 0 0 1 .78.78 0 0 0 0 1 .78.78 0 0 0 0 1 .78.78 0 0 0 0 1 .87.87 0 0 0 -.18.5c0 1.1 2.5 2 5.5 2s5.5-.9 5.5-2a.87.87 0 0 0 -.18-.5.78.78 0 0 0 0-1 .78.78 0 0 0 0-1 .78.78 0 0 0 0-1 .78.78 0 0 0 0-1 .78.78 0 0 0 0-1z" fill="#f9f9d1"/><g fill="#ac9230"><ellipse cx="8" cy="5" rx="5.5" ry="2"/><path d="m8 12c-2.56 0-4.71-.64-5.32-1.5a.87.87 0 0 0 -.18.5c0 1.1 2.5 2 5.5 2s5.5-.9 5.5-2a.87.87 0 0 0 -.18-.5c-.61.86-2.76 1.5-5.32 1.5z"/><path d="m8 8c-2.56 0-4.71-.64-5.32-1.5a.87.87 0 0 0 -.18.5c0 1.1 2.5 2 5.5 2s5.5-.9 5.5-2a.87.87 0 0 0 -.18-.5c-.61.86-2.76 1.5-5.32 1.5z"/><path d="m8 10c-2.56 0-4.71-.64-5.32-1.5a.87.87 0 0 0 -.18.5c0 1.1 2.5 2 5.5 2s5.5-.9 5.5-2a.87.87 0 0 0 -.18-.5c-.61.86-2.76 1.5-5.32 1.5z"/></g></g><path d="m141.34148 134.81895 1.80551-.0149-.0119 1.42733h.55828l-1.43728 1.57265-1.47292-1.57265h.55828z" fill="#00cf00" stroke="#008000" stroke-linecap="square" stroke-linejoin="bevel" stroke-width=".190385"/></g></svg>