<svg xmlns="http://www.w3.org/2000/svg" width="223.24" height="223.24" viewBox="0 0 6.36 6.36"><path fill="#f9f9d1" d="M5.02 3.33a.3.29 0 0 0 .06-.16c0-.36-.86-.66-1.9-.66s-1.9.3-1.9.66a.3.29 0 0 0 .06.16.27.26 0 0 0 0 .33.27.26 0 0 0 0 .33.27.26 0 0 0 0 .32.27.26 0 0 0 0 .33.27.26 0 0 0 0 .33.3.29 0 0 0-.06.16c0 .37.86.66 1.9.66s1.9-.3 1.9-.66a.3.29 0 0 0-.06-.16.27.26 0 0 0 0-.33.27.26 0 0 0 0-.33.27.26 0 0 0 0-.32.27.26 0 0 0 0-.33.27.26 0 0 0 0-.33"/><g fill="#ac9230" transform="translate(-139.05627 -133.79422) matrix(.34575468 0 0 .32813123 139.47223 135.31964)"><ellipse cx="8" cy="5" rx="5.5" ry="2"/><path d="M8 12c-2.56 0-4.71-.64-5.32-1.5a1 1 0 0 0-.18.5c0 1.1 2.5 2 5.5 2s5.5-.9 5.5-2a1 1 0 0 0-.18-.5c-.61.86-2.76 1.5-5.32 1.5m0-4c-2.56 0-4.71-.64-5.32-1.5a1 1 0 0 0-.18.5C2.5 8.1 5 9 8 9s5.5-.9 5.5-2a1 1 0 0 0-.18-.5C12.71 7.36 10.56 8 8 8"/><path d="M8 10c-2.56 0-4.71-.64-5.32-1.5a1 1 0 0 0-.18.5c0 1.1 2.5 2 5.5 2s5.5-.9 5.5-2a1 1 0 0 0-.18-.5C12.71 9.36 10.56 10 8 10"/></g><path fill="red" stroke="maroon" stroke-linecap="square" stroke-linejoin="bevel" stroke-width=".19" d="m2.29 3.96 1.8.02-.01-1.43h.56L3.2.98 1.73 2.55h.56z"/></svg>