<svg xmlns="http://www.w3.org/2000/svg" width="223.24" height="223.24" viewBox="0 0 6.36 6.36"><linearGradient id="a" x1="140.36" x2="142.65" y1="136.92" y2="136.92" gradientTransform="translate(-34.23 -17.72)" gradientUnits="userSpaceOnUse"><stop offset="0" stop-color="#a6c656"/><stop offset="1" stop-color="#bad389"/></linearGradient><path fill="url(#a)" stroke="#619f1e" stroke-linecap="round" stroke-linejoin="round" stroke-width=".25" d="m140.4 134.78.03 4.24 2.56-2.06z" transform="translate(-139.06 -133.8)"/><g stroke-width=".03"><path fill="#f2f2f2" d="M2.95 5.96c-.09-.09-.09-2.68 0-2.77.05-.05.21-.06 1.2-.06h1.16l.2.2.2.2v1.2c0 1.02-.01 1.18-.06 1.23-.1.1-2.61.1-2.7 0m.6-1.19q-.17 0-.18.2-.02.11.13-.05l.14-.13z"/><path fill="#edeef0" d="M2.95 5.96c-.09-.09-.09-2.68 0-2.77.05-.05.21-.06 1.2-.06h1.16l.2.2.2.2v1.2c0 1.02-.01 1.18-.06 1.23-.1.1-2.61.1-2.7 0m.88-1.18c-.45-.02-.46-.02-.46.48v.36l.41-.42.4-.41zm.13-1.55.1-.06h-.22q-.18 0-.2.03c0 .09.2.1.32.03"/><path fill="#eaebeb" d="M2.95 5.95c-.05-.06-.06-.21-.06-1.38V3.26l.07-.07c.06-.05.2-.06 1.2-.06h1.12l.21.2.21.21V5.9l-.06.06c-.06.06-.21.06-1.35.06H3.01zm.97-1.17q-.44-.01-.5.03c-.03.03-.05.16-.05.52v.48l.5-.51.5-.51zm.2-1.44q.13-.09.14-.13c0-.02-.14-.04-.31-.04h-.32v.27h.18a.5.5 0 0 0 .31-.1"/><path fill="#e3e3e3" d="M2.95 5.95c-.05-.06-.06-.21-.06-1.38V3.26l.07-.07c.06-.05.2-.06 1.2-.06h1.12l.21.2.21.21V5.9l-.06.06c-.06.06-.21.06-1.35.06H3.01zm1.26-.57.59-.61h-.67q-.68 0-.71.04c-.06.06-.06 1-.01 1.1.08.16.19.09.8-.53m-.08-1.75c.14-.06.43-.35.43-.43 0-.02-.21-.03-.47-.03h-.46v.53h.18c.1 0 .24-.03.32-.07"/><path fill="#d8e3e9" d="M2.95 5.95c-.05-.06-.06-.21-.06-1.38V3.26l.07-.07c.06-.05.2-.06 1.2-.06h1.12l.21.2.21.21V5.9l-.06.06c-.06.06-.21.06-1.35.06H3.01zm1.67-.55c.31-.32.56-.6.54-.6a9 9 0 0 0-1.74.01c-.06.06-.06 1-.01 1.1.03.06.08.07.34.07h.3zM4.3 3.86l.2-.1.01-.24.01-.24h.14q.15 0 .17-.05c.02-.05-.06-.06-.59-.06h-.61v.4q0 .4.05.41c.1.04.42-.02.62-.12"/><path fill="#bbe5f7" d="M2.95 5.95c-.05-.06-.06-.21-.06-1.38V3.26l.07-.07c.06-.05.2-.06 1.2-.06h1.12l.21.22.21.22V5.9l-.06.06c-.06.06-.21.06-1.35.06H3.01zm1.68-.55c.3-.32.55-.6.53-.6-.02-.02-.4-.03-.87-.04-.72-.01-.85 0-.88.05a4 4 0 0 0 0 1.1c.03.06.08.07.34.07h.3zM4.3 3.86l.2-.1.01-.24.01-.24h.14q.15 0 .17-.05c.02-.05-.06-.06-.59-.06h-.61v.4q0 .4.05.41c.1.04.42-.02.62-.12"/><path fill="#d8dde1" d="m2.97 5.95-.08-.08V3.28l.08-.07.07-.08h2.23l.22.22.21.23v2.29l-.07.08-.07.07h-1c-.54 0-.88-.02-.74-.02l.24-.02.56-.58c.31-.31.55-.59.53-.6-.01-.02-.4-.05-.84-.06l-.81-.02-.06.06c-.06.06-.07.14-.06.6l.01.55.1.04c.08.05.06.05-.18.05-.22 0-.28-.01-.34-.07M4.3 3.86l.2-.1.01-.24.01-.24h.14q.15 0 .17-.05c.02-.05-.06-.06-.59-.06h-.61v.4q0 .4.05.41c.1.04.42-.02.62-.12"/><path fill="#dbdbdc" d="m2.97 5.95-.08-.08V3.28l.08-.07.07-.08h2.23l.22.22.21.23v2.29l-.07.08-.07.07h-1c-.54 0-.88-.02-.74-.02l.24-.02.56-.58c.31-.31.55-.59.53-.6-.01-.02-.4-.05-.84-.06l-.81-.02-.06.06c-.06.06-.07.14-.06.6l.01.55.1.04c.08.05.06.05-.18.05-.22 0-.28-.01-.34-.07M4.45 4c.06-.06.07-.13.07-.4v-.32h.33v.16q0 .14.04.15.05 0 .02-.04-.01-.04.02-.04t.02-.04q-.02-.03.01-.03t.02-.07.02-.03.02-.06.01-.06q.05.02.05-.01 0-.04-.73-.04h-.72v.43c0 .24.01.44.03.46.01.01.18.02.37.02.29 0 .36-.02.42-.08"/><path fill="#d4d4d4" d="m2.97 5.95-.08-.08V3.28l.08-.07.07-.08h2.23l.22.22.21.23v2.29l-.07.08-.07.07h-1c-.54 0-.76-.02-.48-.03h.5l.32-.34.32-.33v-.21c0-.35.03-.34-.9-.37l-.82-.02-.06.06c-.06.06-.07.14-.06.6l.01.55.1.04c.08.05.06.05-.18.05-.22 0-.28-.01-.34-.07m1.68-1.92.07-.06h-.2v-.69h.33l.01.28.01.27.12-.2a1 1 0 0 0 .12-.34v-.12H3.63v.43c0 .24.01.44.03.46.05.05.92.02.99-.03"/><path fill="#cad1d7" d="m2.97 5.95-.08-.08V3.28l.08-.07.07-.08h2.23l.22.22.21.23v2.29l-.07.08-.07.07h-1L3.59 6l.78-.02c.43-.01.8-.04.81-.06.06-.05.06-1.02 0-1.1-.04-.06-.13-.07-.86-.09l-.81-.02-.06.06c-.06.06-.07.14-.06.6l.01.55.1.04c.08.05.06.05-.18.05-.22 0-.28-.01-.34-.07m2-2.03.14-.16v-.6H3.63v.44c0 .24.01.44.03.46.01.01.28.02.6.02h.59zm-.45-.3v-.34h.33v.69h-.33z"/><path fill="#b1d5e6" d="m2.97 5.95-.08-.08V3.28l.08-.07.07-.08h2.23l.22.22.21.23v2.29l-.07.08-.07.07h-1L3.59 6h.77c.68-.02.79-.03.83-.08.07-.1.06-1.05-.01-1.11a4 4 0 0 0-.86-.07l-.81-.02-.06.06c-.06.06-.07.14-.06.6l.01.54.1.05c.08.05.06.05-.18.05-.22 0-.28-.01-.34-.07zm2.12-1.9c.02-.03.04-.23.05-.46l.02-.42H3.63v.43c0 .24.01.44.03.46.04.04 1.4.03 1.43-.02m-.57-.42v-.35h.33v.69h-.33z"/><path fill="#93d4f0" d="m2.97 5.95-.08-.08V3.28l.08-.07c.06-.07.12-.08.36-.08h.28v.4c-.02.24 0 .43.02.47l.04.08h.7q.68 0 .72-.04c.02-.02.04-.22.05-.45l.02-.42-.57-.01-.57-.01.63-.01h.62l.22.21.21.23v2.29l-.07.08c-.06.06-.12.07-.3.07h-.22l.06-.08c.08-.13.08-1.06 0-1.15a6 6 0 0 0-1.74 0 3 3 0 0 0 0 1.16l.06.07h-.22c-.18 0-.25-.01-.3-.07m1.55-2.32v-.35h.33v.69h-.33z"/><path fill="#b4cbd6" d="M2.95 5.96c-.03-.04-.03-2.74 0-2.77l.34-.04.3-.03v.4a2 2 0 0 0 .04.49l.04.07h.7q.68 0 .72-.04c.02-.02.04-.22.05-.45l.02-.42-.2-.01q-.16-.01.07 0h.28l.18.19.18.18-.01 1.22-.01 1.22h-.26L5.14 6l.04-.08a3 3 0 0 0-.02-1.12 6 6 0 0 0-1.75 0q-.05.03-.03.62v.57h-.2zm1.57-2.33v-.35h.33v.69h-.33z"/><path fill="#98c1d6" d="M2.95 5.96c-.03-.04-.03-2.74 0-2.77l.34-.04.3-.03v.4a2 2 0 0 0 .04.49l.04.07h1.4l.04-.07c.02-.04.04-.25.04-.46v-.38l-.2-.01h.36l.18.19.18.18-.01 1.22-.01 1.22h-.26c-.21.02-.25.01-.22-.03.08-.07.07-1.07 0-1.15a6 6 0 0 0-1.76 0q-.04.03-.03.62V6h-.2zm1.59-2.04-.01-.34V3.3h.3v.65l-.14.01q-.13.01-.15-.04"/><path fill="#89bbd5" d="M2.95 5.96c-.03-.04-.03-2.74 0-2.77l.34-.04.3-.03v.4a2 2 0 0 0 .04.49l.04.07h.7c.49 0 .7-.01.73-.04q.05-.06.05-.46v-.41h.08q.1 0 .26.18l.18.18-.01 1.22-.01 1.22h-.26c-.21.02-.25 0-.22-.03.08-.08.07-1.07 0-1.15a6 6 0 0 0-1.76 0q-.05.03-.03.62V6h-.2zm1.57-2.33v-.3h.33v.6h-.33z"/><path fill="#61c3ec" d="M2.95 5.96c-.03-.04-.03-2.74 0-2.77l.34-.04.3-.03V4l.1.07c.12.08 1.3.06 1.4-.02.05-.04.06-.13.06-.47v-.41h.08q.1 0 .26.18l.18.18-.01 1.22-.01 1.22h-.26q-.29.02-.21-.03c.06-.06.06-1.1 0-1.16a7 7 0 0 0-1.77 0q-.04.05-.03.63V6h-.2zm1.57-2.33v-.3h.33v.6h-.33z"/><path fill="#71aece" d="M2.95 5.96c-.04-.05-.03-2.7.02-2.75q.06-.04.34-.04h.28V4l.1.07c.12.08 1.3.06 1.4-.02.05-.04.06-.13.06-.47v-.41h.08q.1 0 .26.18l.18.18-.01 1.22-.01 1.22h-.26c-.14 0-.24 0-.21-.01.06-.03.06-1.12 0-1.19a7 7 0 0 0-1.77.01q-.04.04-.03.63l.01.57h-.2zm1.57-2.33v-.3h.33v.6h-.33z"/><path fill="#4ab8e9" d="M2.95 5.96c-.04-.05-.03-2.7.02-2.75q.06-.04.34-.04h.28v.41c0 .57-.03.54.8.54.8 0 .76.03.76-.54v-.41h.08q.1 0 .26.18l.18.18-.01 1.22-.01 1.22h-.22L5.2 6l.01-.58q.01-.6-.03-.63a7 7 0 0 0-1.77 0q-.05.05-.03.63l.01.57h-.2l-.24-.02m1.57-2.33v-.3h.3v.6h-.3z"/><path fill="#31baed" d="M2.97 5.94c-.06-.07-.06-2.66 0-2.73q.06-.04.34-.04h.28v.41c0 .57-.04.54.77.54.37 0 .68-.02.72-.04.06-.03.07-.08.07-.47v-.44h.08q.08.01.26.18l.18.19v1.18a6 6 0 0 1-.05 1.22c-.02.02-.13.04-.23.04H5.2l.02-.57q.01-.59-.04-.63a7 7 0 0 0-1.77 0q-.05.04-.03.63l.01.57h-.18zm1.55-2.31v-.3h.3v.6h-.3z"/><path fill="#2eb8ec" d="M2.97 5.94a5 5 0 0 1-.04-1.12V3.76l.17-.17c.13-.13.16-.2.16-.3v-.12h.33v.41c0 .57-.04.54.77.54.37 0 .68-.02.72-.04.06-.03.07-.08.07-.47 0-.53.03-.55.32-.24l.2.2v1.16c0 .85-.01 1.18-.05 1.2-.02.03-.13.05-.23.05H5.2l.02-.57q.01-.58-.04-.63c-.03-.04-.2-.05-.88-.05-.46 0-.86.01-.88.03-.04.03-.05.17-.04.63l.01.6h-.18zm1.55-2.31v-.3h.3v.6h-.3z"/><path fill="#2ab2ea" d="M2.97 5.94a2 2 0 0 1-.04-.7V4.6l.2-.22q.22-.22.18-.27a2 2 0 0 1-.02-.5l.01-.44h.29v.41c0 .57-.04.54.77.54.37 0 .68-.02.72-.04.06-.03.07-.08.07-.47 0-.53.03-.55.32-.24l.2.2v1.16c0 .85-.01 1.18-.05 1.2-.02.03-.13.05-.23.05H5.2l.01-.58c.01-.47 0-.6-.04-.63-.03-.03-.3-.04-.91-.03h-.87V6H3.2q-.17-.01-.23-.05m1.55-2.31v-.3h.3v.6h-.3z"/><path fill="#26ade8" d="M2.97 5.94c-.07-.08-.05-.12.18-.35l.22-.22v.3l.02.31H3.2q-.17 0-.23-.04m2.25-.53q.01-.59-.04-.63c-.03-.04-.17-.05-.62-.05H4l.25-.27.26-.26h-.53c-.3 0-.56-.02-.6-.04l-.07-.04v-.95h.29v.41c0 .57-.04.54.77.54.37 0 .68-.02.72-.04.06-.03.07-.08.07-.47q0-.42.04-.44.03.01.03.14v.14l.09-.08.08-.09.14.15.14.14v1.16c0 .85-.01 1.18-.05 1.2-.02.03-.13.05-.23.06h-.2zm-.7-1.78v-.3h.3v.6h-.3z"/><path fill="#23aae6" d="M5.2 5.37v-.62L5 4.73l-.19-.02.43-.44.43-.43v1.02c0 .75-.01 1.05-.05 1.08-.02.02-.13.04-.23.04H5.2zm-2.16.4q-.01-.1.1-.09.1-.01.08.1c-.02.1-.01.1-.09.1s-.1-.03-.1-.1m.37-1.6c-.1-.04-.11-.1-.11-.55v-.45h.29v.41c0 .57-.04.54.77.54.37 0 .68-.02.72-.04.06-.03.07-.08.07-.47q0-.42.04-.44.03.02.03.44c0 .38 0 .44-.07.51l-.08.08h-.8c-.44 0-.83-.02-.86-.03m1.11-.54v-.3h.3v.6h-.3z"/><path fill="#20a5e4" d="M5.22 5.57v-.41l.23-.22.22-.23v.6q0 .6-.05.63c-.02.02-.13.04-.23.04H5.2zm-2.18.2q-.01-.1.1-.09.1-.01.08.1c-.02.1-.01.1-.09.1s-.1-.03-.1-.1m.69-1.6c-.19 0-.36-.03-.38-.06-.04-.03-.05-.16-.05-.49v-.45h.29v.41c0 .57-.04.54.77.54.37 0 .68-.02.72-.04.06-.03.07-.08.07-.47q0-.42.04-.44c.04-.02.03.16.03.42V4l-.09.1-.09.09-.5-.01zm.79-.54v-.3h.3v.6h-.3z"/><path fill="#25a6dd" d="M5.22 5.86q0-.13.23-.35l.22-.23v.3c0 .37-.03.4-.28.4H5.2zm-2.18-.08q-.01-.11.1-.1.1-.01.08.1c-.02.1-.01.1-.09.1s-.1-.03-.1-.1m.3-1.7a2 2 0 0 1-.04-.49v-.42h.29v.41c0 .57-.04.54.77.54.37 0 .68-.02.72-.04.06-.03.07-.08.07-.47q0-.42.04-.44c.04-.02.03.16.03.42 0 .37 0 .43-.07.5l-.08.07H3.38zm1.18-.45v-.3h.3v.6h-.3z"/><path fill="#1ea3e4" d="M5.22 5.86q0-.13.23-.35l.22-.23v.3c0 .37-.03.4-.28.4H5.2zm-2.16-.01c-.06-.07-.02-.17.07-.17q.11-.01.1.1c0 .09-.1.13-.17.07m.28-1.76a2 2 0 0 1-.04-.5v-.42h.29v.44c0 .39.01.44.08.47.1.05 1.31.05 1.4 0 .07-.03.08-.09.09-.48v-.45l.02.43c0 .37 0 .45-.05.5l-.07.08H3.37zm1.18-.46v-.3h.3v.6h-.3z"/><path fill="#4b95ba" d="M3.06 5.85c-.06-.07-.02-.17.07-.17q.11-.01.1.1c0 .09-.1.13-.17.07m2.31-.07q-.01-.11.1-.1c.1.01.09.02.09.1s-.02.1-.1.1-.09-.03-.09-.1M4.4 4.12c.38-.01.69-.04.7-.06.03-.02.05-.23.06-.47l.01-.44v.44l.02.45-.09.06c-.06.05-.2.06-.73.05h-.65zm-.79-.04q-.02-.04.04-.01.1.04.02.05-.03 0-.06-.04m.91-.45v-.3h.3v.6h-.3z"/><path fill="#1c99d9" d="M3.06 5.85c-.06-.07-.02-.17.07-.17q.11-.01.1.1c0 .09-.1.13-.17.07m2.31-.07q-.01-.11.1-.1c.1.01.09.02.09.1s-.02.1-.1.1-.09-.03-.09-.1M4.4 4.12c.38-.01.69-.04.7-.06.03-.02.05-.23.06-.47l.01-.44v.44l.02.45-.09.06c-.06.05-.2.06-.73.05h-.65zm-.79-.04q-.02-.04.04-.01.1.04.02.05-.03 0-.06-.04m.95-.45v-.3h.26v.6h-.26z"/><path fill="#239bd0" d="M3.05 5.82q-.03-.13.1-.14.07 0 .07.1c0 .1-.13.13-.17.04m2.35.03c-.07-.07-.03-.17.05-.16q.09.01.09.08c0 .08-.1.13-.14.08M5.16 3.6q0-.4.02-.22zm-.6.02v-.3h.26v.6h-.26z"/><path fill="#1579ab" d="M3.08 5.76q0-.08.07-.08.09 0 .07.08c-.02.08-.02.07-.07.07s-.07-.02-.07-.07m2.3 0q0-.08.06-.08.08 0 .08.08c0 .08-.03.07-.08.07s-.07-.02-.07-.07m-.82-2.13v-.3h.26v.6h-.26z"/><path fill="#105898" d="M3.08 5.78q0-.06.07-.06.09 0 .07.06-.02.07-.07.05-.07-.02-.07-.05m2.33 0q0-.06.05-.06t.06.06-.06.05z"/></g></svg>