<svg xmlns="http://www.w3.org/2000/svg" width="223.24" height="223.24" viewBox="0 0 6.36 6.36"><path d="M1.13 2.81C1.96.69 3.48.61 4.8 2.07l-.7.8 2.03-.03L6.03.7l-.64.7C3.22-1.04.9.3.13 2.85z"/><path fill="#eb190a" d="M1.06 2.67C1.99.34 3.63.6 4.96 2.07l-.58.68 1.6-.02L5.94.9l-.53.64C3.12-1.05.99.57.25 2.68z"/><path d="M5.15 3.46c-.83 2.12-2.35 2.2-3.68.74l.7-.8-2.02.03.1 2.13.64-.71c2.16 2.47 4.47 1.12 5.26-1.42z"/><path fill="#2cd91e" d="M5.22 3.6c-.94 2.33-2.58 2.08-3.9.6l.58-.68-1.6.02.03 1.81.54-.63c2.29 2.59 4.42.98 5.15-1.13z"/></svg>