<svg xmlns="http://www.w3.org/2000/svg" width="223.24" height="223.24" viewBox="0 0 6.36 6.36"><linearGradient id="a" x1="139.57" x2="140.24" y1="136.47" y2="136.45" gradientTransform="matrix(3.1921547 0 0 3.3334084 -308.78474 -320.83768)" gradientUnits="userSpaceOnUse"><stop offset="0" stop-color="#6c52ad"/><stop offset="1" stop-color="#b4a7d1"/></linearGradient><path fill="#7477b6" stroke="#7477b6" stroke-linejoin="round" stroke-width=".13" d="m136.67 132.71 3.14-.03v.49l-.93.96.02 1.34-1.22.02v-1.36l-1.04-.97z" transform="matrix(.66275927 0 0 .79665283 -91.526966 -106.266873) matrix(2.0049198 0 0 2.0559652 -134.32824 -138.35903)"/><path fill="url(#a)" stroke="#7d63bb" stroke-width=".09" d="m136.78 132.8 2.92-.03.01.45-.87.88.02 1.23-1.13.01v-1.24l-.97-.88z" transform="matrix(.66275927 0 0 .79665283 -91.526966 -106.266873) matrix(2.0049198 0 0 2.0559652 -134.32824 -138.35903)"/><path fill="none" stroke="#f62806" stroke-linecap="round" stroke-width=".63" d="m142.76 139.95 2.59-2.68m.32 2.42-3.23-2.15" transform="matrix(.66275927 0 0 .79665283 -91.526966 -106.266873) matrix(1.4933142 .10869002 -.15704216 1.4933142 -49.158155 -83.898595)"/></svg>