<svg xmlns="http://www.w3.org/2000/svg" width="223.24" height="223.24" viewBox="0 0 6.36 6.36"><g transform="translate(-139.06 -133.8)"><g stroke-width=".49"><path fill="#fff6d5" d="M144.83 135.62a.4.45 0 0 0 .09-.26c0-.57-1.18-1.04-2.59-1.04-1.4 0-2.58.47-2.58 1.04a.4.45 0 0 0 .08.26.37.4 0 0 0 0 .52.37.4 0 0 0 0 .52.37.4 0 0 0 0 .51.37.4 0 0 0 0 .52.37.4 0 0 0 0 .52.4.45 0 0 0-.08.26c0 .57 1.17 1.04 2.58 1.04s2.59-.47 2.59-1.04a.4.45 0 0 0-.09-.26.37.4 0 0 0 0-.52.37.4 0 0 0 0-.52.37.4 0 0 0 0-.51.37.4 0 0 0 0-.52.37.4 0 0 0 0-.52"/><ellipse cx="142.33" cy="135.36" fill="#d4aa00" rx="2.59" ry="1.04"/><path fill="#d4aa00" d="M142.33 138.99c-1.2 0-2.21-.33-2.5-.78a.4.45 0 0 0-.08.26c0 .57 1.17 1.04 2.58 1.04s2.59-.47 2.59-1.04a.4.45 0 0 0-.09-.26c-.28.45-1.3.78-2.5.78m0-2.08c-1.2 0-2.21-.33-2.5-.77a.4.45 0 0 0-.08.26c0 .57 1.17 1.03 2.58 1.03s2.59-.46 2.59-1.03a.4.45 0 0 0-.09-.26c-.28.44-1.3.77-2.5.77"/><path fill="#d4aa00" d="M142.33 137.95c-1.2 0-2.21-.33-2.5-.78a.4.45 0 0 0-.08.26c0 .57 1.17 1.04 2.58 1.04s2.59-.47 2.59-1.04a.4.45 0 0 0-.09-.26c-.28.45-1.3.78-2.5.78"/></g><ellipse cx="142.55" cy="136.38" fill="#e6e6e6" stroke="teal" stroke-linecap="round" stroke-linejoin="round" stroke-opacity=".99" stroke-width=".37" rx="1.54" ry="1.57"/><path fill="teal" d="m141.42 137.42.18.25-2.16 2.44-.19-.25z"/><path d="M142.02 136.58q0 .17-.1.27t-.27.1q-.1 0-.17-.02t-.14-.06v-.28h.02q.07.08.14.12t.16.04h.05l.04-.02.04-.04q.02-.02.02-.06t-.02-.06l-.07-.05-.1-.02-.09-.04q-.1-.05-.14-.13t-.04-.2q0-.15.1-.25t.25-.1l.16.02.13.05v.26h-.02q-.05-.05-.12-.09t-.14-.04l-.05.01q-.03 0-.05.02l-.04.03-.01.06q0 .04.02.07.02.02.1.04l.07.02.1.04q.08.04.13.12.04.07.04.19m.64.07q.03-.05.04-.12t.02-.16-.02-.18q-.01-.07-.04-.12l-.06-.06-.08-.02q-.04 0-.07.02l-.06.06-.05.12-.01.18.01.17.05.12q.02.04.06.06t.07.02l.08-.02zm.02.27q0 .08.03.11t.1.03h.04l.05-.03h.02v.2l-.07.02-.1.01q-.07 0-.12-.02t-.08-.07-.04-.1q-.02-.05-.02-.11-.18-.02-.28-.17t-.1-.42.11-.44.3-.16.3.16.11.44q0 .2-.06.35-.07.14-.19.2m.98.01h-.57v-1.13h.2v.91h.37z"/></g></svg>