<svg xmlns="http://www.w3.org/2000/svg" xmlns:xlink="http://www.w3.org/1999/xlink" width="223.24" height="223.24" viewBox="0 0 6.36 6.36"><g transform="translate(-139.06 -133.8)"><g stroke-width=".03"><path fill="#f2f2f2" d="M139.62 139.42c-.17-.16-.17-4.82 0-4.98.1-.1.4-.1 2.32-.1h2.21l.38.36.38.36v2.13c0 1.84-.01 2.14-.11 2.23-.17.16-5.01.16-5.18 0m1.16-2.14c-.18-.02-.35.15-.35.36 0 .12.03.1.25-.1l.26-.23z"/><path fill="#edeef0" d="M139.62 139.42c-.17-.16-.17-4.82 0-4.98.1-.1.4-.1 2.32-.1h2.21l.38.36.38.36v2.13c0 1.84-.01 2.14-.11 2.23-.17.16-5.01.16-5.18 0m1.68-2.13c-.87-.03-.87-.02-.87.87v.65l.78-.75.79-.75zm.27-2.79.18-.1h-.41c-.23 0-.41.03-.41.06 0 .16.39.18.64.04"/><path fill="#eaebeb" d="M139.62 139.4c-.1-.1-.11-.38-.11-2.48v-2.36l.13-.11c.11-.1.38-.12 2.3-.12h2.16l.4.37.41.38v4.22l-.13.12c-.11.1-.4.11-2.58.11h-2.46zm1.87-2.11q-.86-.02-.96.06c-.08.06-.1.29-.1.94v.86l.96-.92.96-.92zm.38-2.58c.15-.1.27-.2.27-.24s-.27-.07-.6-.07h-.61v.48h.34a1 1 0 0 0 .6-.17"/><path fill="#e3e3e3" d="M139.62 139.4c-.1-.1-.11-.38-.11-2.48v-2.36l.13-.11c.11-.1.38-.12 2.3-.12h2.16l.4.37.41.38v4.22l-.13.12c-.11.1-.4.11-2.58.11h-2.46zm2.41-1.03 1.14-1.1h-1.29c-.9 0-1.3.03-1.36.09-.11.1-.12 1.78-.02 1.97.16.29.36.16 1.53-.96m-.14-3.14c.27-.11.82-.64.82-.77 0-.03-.4-.06-.9-.06h-.88v.96h.34c.18 0 .46-.06.62-.13"/><path fill="#d8e3e9" d="M139.62 139.4c-.1-.1-.11-.38-.11-2.48v-2.36l.13-.11c.11-.1.38-.12 2.3-.12h2.16l.4.37.41.38v4.22l-.13.12c-.11.1-.4.11-2.58.11h-2.46zm3.21-.98a8 8 0 0 0 1.04-1.1 21 21 0 0 0-3.35.04c-.11.1-.12 1.78-.02 1.97.07.11.16.13.66.13h.59zm-.62-2.78.39-.18.02-.43.02-.42h.27q.28 0 .32-.1c.03-.1-.12-.1-1.13-.1h-1.17v.7q0 .73.08.75c.19.08.82-.04 1.2-.22"/><path fill="#bbe5f7" d="M139.62 139.4c-.1-.1-.11-.38-.11-2.48v-2.36l.13-.11c.11-.1.38-.12 2.3-.12h2.16l.4.4.41.4v4.18l-.13.1c-.11.1-.4.12-2.58.12h-2.46zm3.22-.99a8 8 0 0 0 1.03-1.09c-.03-.02-.8-.04-1.68-.06-1.38-.02-1.63 0-1.69.08-.1.14-.09 1.82 0 1.99.07.11.16.13.66.13h.59zm-.63-2.77.39-.18.02-.43.02-.42h.27q.28 0 .32-.1c.03-.1-.12-.1-1.13-.1h-1.17v.7q0 .73.08.75c.19.08.82-.04 1.2-.22"/><path fill="#d8dde1" d="m139.65 139.4-.14-.14v-4.65l.14-.14.14-.14h4.29l.42.4.41.4v4.13l-.14.13-.14.14-1.9-.01c-1.05 0-1.7-.03-1.45-.04l.47-.02 1.08-1.04a7 7 0 0 0 1.02-1.1c-.03-.03-.76-.07-1.62-.1l-1.56-.03-.12.12c-.1.1-.12.24-.1 1.08l.02.97.17.08c.16.08.13.09-.33.09-.43 0-.55-.02-.66-.14m2.56-3.76.39-.18.02-.43.02-.42h.27q.28 0 .32-.1c.03-.1-.12-.1-1.13-.1h-1.17v.7q0 .74.08.75c.19.08.82-.04 1.2-.22"/><path fill="#dbdbdc" d="m139.65 139.4-.14-.14v-4.65l.14-.14.14-.14h4.29l.42.4.41.4v4.13l-.14.13-.14.14-1.9-.01c-1.05 0-1.7-.03-1.45-.04l.47-.02 1.08-1.04a7 7 0 0 0 1.02-1.1c-.03-.03-.76-.07-1.62-.1l-1.56-.03-.12.12c-.1.1-.12.24-.1 1.08l.02.97.17.08c.16.08.13.09-.33.09-.43 0-.55-.02-.66-.14m2.85-3.5c.11-.1.14-.24.14-.71v-.58h.64v.27c0 .15.03.27.07.27s.06-.03.03-.06q-.03-.06.04-.07.07 0 .03-.07-.02-.06.03-.07.07-.01.03-.11-.05-.12.05-.06.09.06.04-.1-.06-.15.02-.11t.08-.03-1.38-.07h-1.4v.78c0 .42.03.8.06.82.03.03.35.04.72.04.55-.01.7-.04.8-.14"/><path fill="#d4d4d4" d="m139.65 139.4-.14-.14v-4.65l.14-.14.14-.14h4.29l.42.4.41.4v4.13l-.14.13-.14.14-1.9-.01c-1.05-.01-1.48-.03-.95-.04l.96-.02.62-.6.63-.6v-.37c0-.64.05-.62-1.75-.66l-1.57-.04-.12.11c-.1.1-.12.25-.1 1.09l.02.97.17.08c.16.08.13.09-.33.09-.43 0-.55-.02-.66-.14m3.24-3.46.14-.1h-.4v-1.23h.64l.02.5.02.49.23-.38c.13-.21.23-.47.23-.6v-.22h-2.84v.78c0 .42.02.8.04.82.1.1 1.77.05 1.92-.06"/><path fill="#cad1d7" d="m139.65 139.4-.14-.14v-4.65l.14-.14.14-.14h4.29l.42.4.41.4v4.13l-.14.13-.14.14-1.9-.01-1.9-.02 1.5-.04a12 12 0 0 0 1.56-.09c.11-.1.12-1.84 0-1.98-.08-.11-.25-.13-1.65-.16l-1.57-.04-.12.11c-.1.1-.12.25-.1 1.09l.02.97.17.08c.16.08.13.09-.33.09-.43 0-.55-.02-.66-.14m3.87-3.64.25-.29v-1.07h-2.84v.78c0 .42.02.8.05.82.02.02.55.04 1.16.04h1.12zm-.88-.54v-.61h.64v1.23h-.64z"/><path fill="#b1d5e6" d="m139.65 139.4-.14-.14v-4.65l.14-.14.14-.14h4.29l.42.4.41.4v4.13l-.14.13-.14.14-1.9-.02-1.9-.01 1.48-.02c1.3-.02 1.51-.04 1.59-.14.13-.17.12-1.89-.01-2q-.1-.08-1.66-.12l-1.55-.04-.13.12c-.1.1-.12.24-.1 1.09l.02.96.17.09c.16.08.13.09-.33.09-.43 0-.55-.03-.66-.14zm4.09-3.43c.02-.04.06-.4.08-.82l.05-.75h-2.94v.78c0 .42.02.8.05.82.07.07 2.7.05 2.76-.03m-1.1-.75v-.61h.64v1.23h-.64z"/><path fill="#93d4f0" d="m139.65 139.4-.14-.14v-4.65l.14-.14c.12-.11.23-.14.7-.14h.54l-.02.72c-.01.43.01.77.06.85l.07.14h1.35a6 6 0 0 0 1.39-.07c.02-.04.06-.4.08-.82l.05-.74-1.1-.03-1.1-.02 1.2-.01 1.21-.02.42.4.41.4v4.13l-.14.13c-.11.11-.24.14-.57.14h-.43l.1-.15c.17-.22.17-1.91 0-2.07a12 12 0 0 0-3.33 0 4.4 4.4 0 0 0 0 2.1l.12.12h-.43c-.35 0-.47-.03-.58-.14m2.99-4.18v-.61h.64v1.23h-.64z"/><path fill="#b4cbd6" d="M139.62 139.42c-.06-.07-.06-4.93 0-4.97.04-.02.33-.05.65-.08l.59-.05v.73c0 .4.03.79.07.86l.07.13h1.35a6 6 0 0 0 1.39-.07c.02-.04.06-.4.08-.81l.04-.75-.38-.03q-.3-.03.14 0l.53.01.35.33.34.33-.02 2.19-.02 2.19-.48.02-.49.02.08-.14c.13-.23.1-1.89-.04-2.02-.16-.15-3.24-.16-3.37 0-.06.06-.08.4-.06 1.12l.02 1.03h-.4c-.21 0-.41-.02-.44-.04m3.02-4.2v-.61h.64v1.23h-.64z"/><path fill="#98c1d6" d="M139.62 139.42c-.06-.07-.06-4.93 0-4.97.04-.02.33-.05.65-.08l.59-.05v.73c0 .4.03.79.07.86l.07.13h2.7l.07-.13c.04-.07.07-.44.07-.82v-.68l-.37-.03q-.3-.03.15 0l.53.01.35.33.34.33-.02 2.19-.02 2.19-.5.02c-.4.02-.48 0-.4-.06a5 5 0 0 0-.03-2.07 12 12 0 0 0-3.37-.01c-.06.07-.08.4-.06 1.12l.02 1.03h-.4c-.21 0-.41-.02-.44-.04m3.05-3.67a3 3 0 0 1-.02-.6l.02-.5h.57v1.15l-.27.03q-.27.01-.3-.08"/><path fill="#89bbd5" d="M139.62 139.42c-.06-.07-.06-4.93 0-4.97.04-.02.33-.05.65-.08l.59-.05v.73c0 .4.03.79.07.86l.07.13h1.34a5 5 0 0 0 1.42-.08q.08-.09.08-.82v-.74h.17q.17.02.5.33l.33.33-.02 2.18-.02 2.19-.5.02c-.4.02-.48 0-.4-.07a5 5 0 0 0-.03-2.07c-.16-.15-3.24-.16-3.37 0-.06.06-.08.4-.06 1.12l.02 1.03h-.4c-.21 0-.41-.02-.44-.04m3.02-4.2v-.54h.64v1.09h-.64z"/><path fill="#61c3ec" d="M139.62 139.42c-.06-.07-.06-4.93 0-4.97.04-.02.33-.05.65-.08l.59-.05v1.58l.17.11c.23.15 2.5.12 2.7-.03.1-.07.11-.23.11-.83v-.75h.17q.17.01.5.33l.33.33-.02 2.18-.02 2.19-.5.02c-.4.02-.48 0-.4-.07.12-.11.12-1.97 0-2.1-.14-.12-3.29-.1-3.4.02-.06.07-.08.4-.06 1.13l.02 1.03h-.4c-.21 0-.41-.02-.44-.04m3.02-4.2v-.54h.64v1.09h-.64z"/><path fill="#71aece" d="M139.62 139.42c-.09-.1-.05-4.85.04-4.94.05-.05.3-.08.64-.08h.56v1.5l.17.11c.23.15 2.5.12 2.7-.03.1-.07.11-.23.11-.83v-.75h.17q.17.02.5.33l.33.33-.02 2.18-.02 2.19-.5.01c-.27 0-.45 0-.4-.02.12-.05.12-2.01 0-2.13a15 15 0 0 0-3.4.01c-.06.07-.07.41-.06 1.13l.02 1.03h-.4c-.21 0-.41-.02-.44-.04m3.02-4.2v-.54h.64v1.09h-.64z"/><path fill="#4ab8e9" d="M139.62 139.42c-.09-.1-.05-4.85.04-4.94.05-.05.3-.08.64-.08h.56v.74c0 1.02-.08.97 1.5.97 1.57 0 1.48.05 1.48-.96v-.75h.17q.17.01.5.33l.33.33-.02 2.18-.02 2.19-.42.02-.43.02.02-1.04c.02-.72 0-1.06-.06-1.13-.12-.14-3.28-.14-3.4 0-.06.07-.08.41-.07 1.13l.03 1.03h-.4c-.22 0-.42-.02-.45-.05zm3.02-4.2v-.54h.56v1.09h-.56z"/><path fill="#31baed" d="M139.66 139.38a33 33 0 0 1 0-4.9c.05-.05.3-.08.64-.08h.56v.75c0 1.01-.08.96 1.46.96.73 0 1.3-.03 1.39-.07.12-.06.13-.15.13-.85v-.79h.16c.08 0 .3.14.5.33l.34.34v2.11c0 1.56-.02 2.14-.09 2.2-.04.04-.24.08-.44.08h-.36l.02-1.03c.02-.72 0-1.06-.06-1.13-.12-.14-3.28-.14-3.4 0-.06.07-.08.41-.07 1.13l.03 1.03h-.36c-.2 0-.4-.03-.45-.08m2.98-4.16v-.54h.56v1.09h-.56z"/><path fill="#2eb8ec" d="M139.66 139.38c-.06-.06-.08-.6-.08-2v-1.92l.32-.3c.25-.24.32-.36.32-.53v-.23h.64v.75c0 1.01-.08.96 1.46.96.73 0 1.3-.03 1.39-.07.12-.06.13-.15.13-.85 0-.95.06-.98.63-.43l.37.36v2.1c0 1.52-.02 2.1-.09 2.16-.04.04-.24.08-.44.08h-.36l.02-1.03c.02-.72 0-1.06-.06-1.13-.07-.08-.39-.1-1.7-.1-.88 0-1.64.03-1.7.06-.06.05-.08.3-.06 1.13l.02 1.07h-.36c-.2 0-.4-.03-.45-.08m2.98-4.16v-.54h.56v1.09h-.56z"/><path fill="#2ab2ea" d="M139.66 139.38c-.06-.06-.08-.43-.08-1.25v-1.16l.4-.39c.3-.29.38-.41.33-.49a4 4 0 0 1-.04-.9l.03-.79h.56v.75c0 1.01-.08.96 1.47.96.72 0 1.3-.03 1.38-.07.12-.06.13-.15.13-.85 0-.95.06-.98.63-.43l.37.36v2.1c0 1.52-.02 2.1-.08 2.16-.05.04-.25.08-.45.08h-.36l.02-1.05c.02-.84 0-1.06-.08-1.13a7 7 0 0 0-1.76-.06l-1.67.02v2.22h-.35c-.2 0-.4-.03-.45-.08m2.98-4.16v-.54h.56v1.09h-.56z"/><path fill="#26ade8" d="M139.66 139.38c-.14-.14-.1-.21.34-.63l.42-.4.02.56.02.55h-.36c-.2 0-.4-.04-.44-.08m4.31-.95c.02-.72 0-1.06-.06-1.13-.07-.07-.32-.1-1.2-.1h-1.1l.5-.47.49-.48h-1.02c-.57 0-1.08-.03-1.15-.07l-.14-.07v-1.71h.57v.75c0 1.01-.08.96 1.46.96.73 0 1.3-.03 1.39-.07.12-.06.13-.15.13-.85 0-.48.03-.79.08-.79.03 0 .07.11.07.25v.25l.16-.14.16-.15.27.26.26.26v2.08c0 1.53-.02 2.11-.09 2.17-.04.05-.24.08-.44.08h-.36zm-1.33-3.2v-.55h.56v1.09h-.56z"/><path fill="#23aae6" d="M143.95 138.35v-1.11l-.37-.03-.38-.04.82-.78.82-.79v1.85c0 1.35-.02 1.87-.09 1.93-.04.04-.24.08-.44.08h-.36zm-4.16.74q-.01-.2.18-.18.2-.02.18.18c-.02.2-.04.17-.18.17s-.18-.04-.18-.17m.71-2.9c-.19-.06-.21-.17-.21-.98v-.8h.57v.74c0 1.01-.08.96 1.46.96.73 0 1.3-.03 1.39-.07.12-.06.13-.15.13-.85 0-.48.03-.79.08-.79.04 0 .07.3.07.79 0 .7-.02.8-.15.92l-.14.14h-1.55c-.85 0-1.59-.03-1.65-.05m2.14-.97v-.54h.56v1.09h-.56z"/><path fill="#20a5e4" d="m143.97 138.72.03-.74.42-.4.42-.4v1.06c0 .73-.03 1.08-.08 1.14-.05.04-.25.08-.45.08h-.36zm-4.18.37q-.01-.2.18-.18.2-.02.18.18c-.02.2-.04.17-.18.17s-.18-.04-.18-.17m1.32-2.9a2 2 0 0 1-.73-.09c-.07-.05-.1-.3-.1-.89v-.8h.58v.74c0 1.01-.08.96 1.46.96.73 0 1.3-.03 1.39-.07.12-.06.13-.15.13-.85 0-.48.03-.79.08-.79s.07.3.07.76v.75l-.18.17-.17.17-.95-.02zm1.53-.97v-.54h.56v1.09h-.56z"/><path fill="#25a6dd" d="M143.97 139.23c.02-.17.14-.33.45-.63l.42-.4v.55c0 .65-.05.71-.53.71h-.37zm-4.18-.14q-.02-.2.18-.18.2-.02.18.18c-.02.2-.04.17-.18.17s-.18-.04-.18-.17m.57-3.04a4 4 0 0 1-.07-.9v-.75h.57v.75c0 1.01-.08.96 1.46.96.73 0 1.3-.03 1.39-.07.12-.06.13-.15.13-.85 0-.48.03-.79.08-.79s.07.3.07.75c0 .66-.02.77-.15.9l-.14.13h-3.27zm2.28-.83v-.54h.56v1.09h-.56z"/><path fill="#1ea3e4" d="M143.97 139.23c.02-.17.14-.33.45-.63l.42-.4v.55c0 .65-.05.71-.53.71h-.37zm-4.13-.02c-.12-.11-.04-.3.13-.3q.2-.01.18.18c0 .16-.2.24-.31.12m.52-3.16a4 4 0 0 1-.07-.9v-.75h.57v.79c0 .7.01.79.13.85.19.1 2.53.1 2.72 0 .12-.06.14-.16.15-.87l.01-.8.03.78c.02.65 0 .8-.1.9l-.12.13h-3.25zm2.28-.83v-.54h.56v1.09h-.56z"/><path fill="#4b95ba" d="M139.84 139.21c-.12-.12-.04-.3.13-.3q.2-.02.18.18c0 .16-.2.24-.31.12m4.43-.12q-.01-.2.18-.18c.19.02.18.04.18.18s-.04.17-.18.17-.18-.04-.18-.17m-1.87-2.98a8 8 0 0 0 1.37-.1c.04-.04.08-.43.1-.86l.01-.78.02.8.01.8-.15.1c-.13.1-.38.1-1.4.1l-1.26-.02zm-1.5-.07q-.04-.06.06-.02c.12.04.15.1.04.1q-.06-.01-.1-.08m-.09-.89c0-.43.01-.6.03-.39v.79c-.02.21-.03.04-.03-.4m1.82.07v-.54h.57v1.09h-.57z"/><path fill="#1c99d9" d="M139.84 139.21c-.12-.12-.04-.3.13-.3q.2-.02.18.18c0 .16-.2.24-.31.12m4.43-.12q-.01-.2.18-.18c.19.02.18.04.18.18s-.04.17-.18.17-.18-.04-.18-.17m-1.87-2.98a8 8 0 0 0 1.37-.1c.04-.04.08-.43.1-.86l.01-.78.02.8.01.8-.15.1c-.13.1-.38.1-1.4.1l-1.26-.02zm-1.5-.07q-.04-.06.06-.02c.12.04.15.1.04.1q-.06-.01-.1-.08m-.09-.89c0-.43.01-.6.03-.39v.79c-.02.21-.03.04-.03-.4m1.9.07v-.54h.49v1.09h-.49z"/><path fill="#239bd0" d="M139.82 139.16c-.06-.14.02-.25.19-.25q.14 0 .14.18c0 .19-.26.24-.33.07m4.5.05c-.12-.11-.05-.3.11-.28q.16.02.16.15c0 .14-.17.22-.27.13m-.45-4.02c0-.45.01-.63.03-.4v.83c-.02.21-.03.02-.03-.43m-1.16.03v-.54h.49v1.09h-.49z"/><path fill="#1579ab" d="M139.86 139.05q0-.14.14-.14c.14 0 .15.05.15.14s-.05.14-.15.14-.14-.05-.14-.14m4.41 0q0-.14.14-.14c.14 0 .15.05.15.14s-.05.14-.15.14-.14-.05-.14-.14m-1.56-3.83v-.54h.49v1.09h-.49z"/><path fill="#105898" d="M139.86 139.09q.01-.1.14-.1c.13 0 .15.04.15.1s-.07.1-.15.1-.14-.05-.14-.1m4.48 0q.01-.1.1-.1.11 0 .12.1a.1.1 0 0 1-.11.1.1.1 0 0 1-.1-.1"/></g><path id="a" fill="none" stroke="#90908f" stroke-linecap="round" stroke-linejoin="round" stroke-width=".03" d="M140.9 137.73h2.53z"/><use xlink:href="#a" transform="translate(0 .5)"/><use xlink:href="#a" transform="translate(0 1)"/></g></svg>