<svg xmlns="http://www.w3.org/2000/svg" viewBox="0 0 32 32"><g fill="none" stroke-width="2"><path stroke="#a7a7a6" d="m9.8 26.8 9.3-9.2a2 2-61.5 0 1 2.1-.7c5.3 1 7-3.2 7.3-7.9 0-1-.8-1-1.3-.3-1.8 2.6-4.6 4.6-7.4 1.9"/><path stroke="#bfc0bf" d="M19.8 10.6q.3-3.3 3.2-5.8.6-.5 0-.6-5-1-7.6 3a2 1.2 70.7 0 0-.2 1l-.1 2.9c-.5 3.1-7.5 8.9-9.9 11.1-3.3 3 1.7 7.6 4.6 4.6"/><path stroke="#d2d2d1" d="M9.8 22.3q-4-1.4-3.8 2.1a1 1-71.1 0 0 .4.9q1.3 1.2 3.3 1"/><path stroke="#e6e6e6" d="M9.7 26.3v.4"/><path stroke="#bab9b9" d="M9.7 26.3q.6-2 0-4"/></g><path fill="#80817f" d="M22.2 9.8q0 1.3 1.1.2l3.1-3q1.8-1.8 2.4.5c1 4.5.4 11.8-6.3 10.5q-1.8-.3-3 1c-3 3-13.3 17.4-16.8 6q-.8-2.6 1.7-4.5 5.2-4 9.4-9a1.4 1.2 62.2 0 0 .3-1q-.6-3.3 1.1-6a1.6 1.5-82.2 0 1 .8-.6c2.2-.9 8.7-2 9.8.4V5l-3.3 3a1.4.8 79.1 0 0-.3 1zm-12.4 17 9.3-9.2a2 2-61.5 0 1 2.1-.7c5.3 1 7-3.2 7.3-7.9 0-1-.8-1-1.3-.3-1.8 2.6-4.6 4.6-7.4 1.9q.3-3.3 3.2-5.8.6-.6 0-.6-5-1-7.6 3a2 1.2 70.7 0 0-.2 1l-.1 2.9c-.5 3.1-7.5 8.9-9.9 11.1-3.3 3 1.7 7.6 4.6 4.6"/><path fill="#fefefe" d="m19.8 10.6-10 11.7q-4-1.4-3.8 2.1a1 1-71.1 0 0 .4.9q1.3 1.2 3.3 1v.4C7 29.9 2 25.4 5.3 22.3c2.4-2.2 9.4-8 9.9-11.1q.2-1.4.1-2.9a2 1.2 70.7 0 1 .2-1q2.6-4 7.6-3 .6 0 0 .6-2.9 2.5-3.2 5.8"/><path fill="#cdcdcd" d="M9.8 26.8v-.6q.5-2 0-4l10-11.6c2.8 2.7 5.6.7 7.4-1.9.5-.7 1.3-.7 1.3.3-.3 4.7-2 9-7.3 8a2 2-61.5 0 0-2.1.6z"/><path fill="#a6a5a4" d="M9.8 22.3q.5 2 0 4-2 .2-3.4-1a1 1-71.1 0 1-.4-.9q0-3.4 3.8-2.1"/></svg>