<svg xmlns="http://www.w3.org/2000/svg" width="223.24" height="223.24" viewBox="0 0 6.36 6.36"><linearGradient id="a" x1="139.54" x2="144.95" y1="137.07" y2="137.07" gradientTransform="matrix(1.001271 0 0 .88398614 -.180804 15.787712)" gradientUnits="userSpaceOnUse"><stop offset="0" stop-color="#53aee6"/><stop offset="1" stop-color="#bbceeb"/></linearGradient><linearGradient id="b" x1="139.57" x2="140.24" y1="136.47" y2="136.45" gradientTransform="matrix(3.1921547 0 0 3.3334084 -304.88839 -317.91855)" gradientUnits="userSpaceOnUse"><stop offset="0" stop-color="#6c52ad"/><stop offset="1" stop-color="#b4a7d1"/></linearGradient><path fill="url(#a)" stroke="#38708c" stroke-linecap="round" stroke-linejoin="round" stroke-opacity=".99" stroke-width=".11" d="M139.55 134.7h5.39v4.51h-5.39z" transform="translate(-139.05627 -133.79422)"/><path fill="#fff" d="M.8 1.26h1.25v.5H.8zm1.55 0h2.13v.5H2.35zm2.43.01h.77v.5h-.77zM.8 4.47h1.25v.5H.8zm1.55 0h2.13v.5H2.35zm2.43.01h.77v.5h-.77zM.8 3.66h1.25v.5H.8zm1.55 0h2.13v.5H2.35zm2.43.02h.77v.5h-.77zM.8 2.86h1.25v.5H.8zm1.55 0h2.13v.5H2.35zm2.43.01h.77v.5h-.77zM.8 2.06h1.25v.5H.8zm1.55 0h2.13v.5H2.35zm2.43.01h.77v.5h-.77z"/><path fill="#7477b6" stroke="#7477b6" stroke-linejoin="round" stroke-width=".13" d="m140.56 135.63 3.14-.03.01.48-.93.97.01 1.34-1.21.01v-1.35l-1.04-.97z" transform="translate(-139.05627 -133.79422) matrix(.66275927 0 0 .79665283 49.034467 28.63288)"/><path fill="url(#b)" stroke="#7d63bb" stroke-width=".09" d="m140.67 135.72 2.93-.03v.45l-.86.88.01 1.23-1.13.01v-1.24l-.97-.88z" transform="translate(-139.05627 -133.79422) matrix(.66275927 0 0 .79665283 49.034467 28.63288)"/></svg>