<svg height="64" viewBox="0 0 1.8244793 1.8244793" width="64" xmlns="http://www.w3.org/2000/svg" xmlns:xlink="http://www.w3.org/1999/xlink"><linearGradient id="a" gradientTransform="matrix(.28501858 0 0 .26784971 99.457663 97.964528)" gradientUnits="userSpaceOnUse" x1="139.54073" x2="144.94923" y1="137.06853" y2="137.06853"><stop offset="0" stop-color="#53aee6"/><stop offset="1" stop-color="#bbceeb"/></linearGradient><g transform="translate(-139.05627 -133.79422)"><path d="m139.23354 133.99446h1.533182v1.36767h-1.533182z" style="stroke:#38708c;stroke-width:.031913;stroke-linecap:round;stroke-linejoin:round;stroke-opacity:.992157;fill:url(#a)"/><g fill="#fff"><g transform="matrix(.28465678 0 0 .30300216 99.505069 93.180817)"><path d="m139.86949 135.04971h1.255502v.501386h-1.255502z"/><path d="m141.42461 135.04971h2.125793v.501386h-2.125793z"/><path d="m143.85001 135.06194h.770422v.501386h-.770422z"/></g><g transform="matrix(.28465678 0 0 .30300216 99.505069 94.153481)"><path d="m139.86949 135.04971h1.255502v.501386h-1.255502z"/><path d="m141.42461 135.04971h2.125793v.501386h-2.125793z"/><path d="m143.85001 135.06194h.770422v.501386h-.770422z"/></g><g transform="matrix(.28465678 0 0 .30300216 99.505069 93.910315)"><path d="m139.86949 135.04971h1.255502v.501386h-1.255502z"/><path d="m141.42461 135.04971h2.125793v.501386h-2.125793z"/><path d="m143.85001 135.06194h.770422v.501386h-.770422z"/></g><g transform="matrix(.28465678 0 0 .30300216 99.505069 93.667149)"><path d="m139.86949 135.04971h1.255502v.501386h-1.255502z"/><path d="m141.42461 135.04971h2.125793v.501386h-2.125793z"/><path d="m143.85001 135.06194h.770422v.501386h-.770422z"/></g><g transform="matrix(.28465678 0 0 .30300216 99.505069 93.423983)"><path d="m139.86949 135.04971h1.255502v.501386h-1.255502z"/><path d="m141.42461 135.04971h2.125793v.501386h-2.125793z"/><path d="m143.85001 135.06194h.770422v.501386h-.770422z"/></g></g></g></svg>